%TF.GenerationSoftware,KiCad,Pcbnew,8.0.6*%
%TF.CreationDate,2024-11-15T11:24:47+01:00*%
%TF.ProjectId,ares-parachute-board,61726573-2d70-4617-9261-63687574652d,rev?*%
%TF.SameCoordinates,Original*%
%TF.FileFunction,Legend,Bot*%
%TF.FilePolarity,Positive*%
%FSLAX46Y46*%
G04 Gerber Fmt 4.6, Leading zero omitted, Abs format (unit mm)*
G04 Created by KiCad (PCBNEW 8.0.6) date 2024-11-15 11:24:47*
%MOMM*%
%LPD*%
G01*
G04 APERTURE LIST*
%ADD10C,0.120000*%
%ADD11C,0.200000*%
%ADD12C,1.900000*%
%ADD13C,1.700000*%
%ADD14O,1.000000X1.800000*%
%ADD15O,1.000000X2.100000*%
%ADD16C,0.650000*%
%ADD17C,2.200000*%
%ADD18O,1.700000X1.700000*%
%ADD19R,1.700000X1.700000*%
%ADD20C,3.500000*%
%ADD21R,2.200000X2.200000*%
%ADD22C,1.100000*%
%ADD23C,1.524000*%
%ADD24O,1.000000X1.000000*%
%ADD25R,1.000000X1.000000*%
G04 APERTURE END LIST*
D10*
X42000006Y70000008D02*
X44000006Y70000008D01*
X44000006Y60000008D01*
X42000006Y60000008D01*
X42000006Y70000008D01*
G36*
X42000006Y70000008D02*
G01*
X44000006Y70000008D01*
X44000006Y60000008D01*
X42000006Y60000008D01*
X42000006Y70000008D01*
G37*
X45000006Y69000008D02*
X53000006Y69000008D01*
X53000006Y61000008D01*
X45000006Y61000008D01*
X45000006Y69000008D01*
G36*
X45000006Y69000008D02*
G01*
X53000006Y69000008D01*
X53000006Y61000008D01*
X45000006Y61000008D01*
X45000006Y69000008D01*
G37*
D11*
X7461538Y41677954D02*
X7461538Y41201764D01*
X7747253Y41773192D02*
X6747253Y41439859D01*
X6747253Y41439859D02*
X7747253Y41106526D01*
X7747253Y40201764D02*
X7271062Y40535097D01*
X7747253Y40773192D02*
X6747253Y40773192D01*
X6747253Y40773192D02*
X6747253Y40392240D01*
X6747253Y40392240D02*
X6794872Y40297002D01*
X6794872Y40297002D02*
X6842491Y40249383D01*
X6842491Y40249383D02*
X6937729Y40201764D01*
X6937729Y40201764D02*
X7080586Y40201764D01*
X7080586Y40201764D02*
X7175824Y40249383D01*
X7175824Y40249383D02*
X7223443Y40297002D01*
X7223443Y40297002D02*
X7271062Y40392240D01*
X7271062Y40392240D02*
X7271062Y40773192D01*
X7223443Y39773192D02*
X7223443Y39439859D01*
X7747253Y39297002D02*
X7747253Y39773192D01*
X7747253Y39773192D02*
X6747253Y39773192D01*
X6747253Y39773192D02*
X6747253Y39297002D01*
X7699634Y38916049D02*
X7747253Y38773192D01*
X7747253Y38773192D02*
X7747253Y38535097D01*
X7747253Y38535097D02*
X7699634Y38439859D01*
X7699634Y38439859D02*
X7652014Y38392240D01*
X7652014Y38392240D02*
X7556776Y38344621D01*
X7556776Y38344621D02*
X7461538Y38344621D01*
X7461538Y38344621D02*
X7366300Y38392240D01*
X7366300Y38392240D02*
X7318681Y38439859D01*
X7318681Y38439859D02*
X7271062Y38535097D01*
X7271062Y38535097D02*
X7223443Y38725573D01*
X7223443Y38725573D02*
X7175824Y38820811D01*
X7175824Y38820811D02*
X7128205Y38868430D01*
X7128205Y38868430D02*
X7032967Y38916049D01*
X7032967Y38916049D02*
X6937729Y38916049D01*
X6937729Y38916049D02*
X6842491Y38868430D01*
X6842491Y38868430D02*
X6794872Y38820811D01*
X6794872Y38820811D02*
X6747253Y38725573D01*
X6747253Y38725573D02*
X6747253Y38487478D01*
X6747253Y38487478D02*
X6794872Y38344621D01*
X7747253Y37154144D02*
X6747253Y37154144D01*
X6747253Y37154144D02*
X6747253Y36773192D01*
X6747253Y36773192D02*
X6794872Y36677954D01*
X6794872Y36677954D02*
X6842491Y36630335D01*
X6842491Y36630335D02*
X6937729Y36582716D01*
X6937729Y36582716D02*
X7080586Y36582716D01*
X7080586Y36582716D02*
X7175824Y36630335D01*
X7175824Y36630335D02*
X7223443Y36677954D01*
X7223443Y36677954D02*
X7271062Y36773192D01*
X7271062Y36773192D02*
X7271062Y37154144D01*
X7747253Y35725573D02*
X7223443Y35725573D01*
X7223443Y35725573D02*
X7128205Y35773192D01*
X7128205Y35773192D02*
X7080586Y35868430D01*
X7080586Y35868430D02*
X7080586Y36058906D01*
X7080586Y36058906D02*
X7128205Y36154144D01*
X7699634Y35725573D02*
X7747253Y35820811D01*
X7747253Y35820811D02*
X7747253Y36058906D01*
X7747253Y36058906D02*
X7699634Y36154144D01*
X7699634Y36154144D02*
X7604395Y36201763D01*
X7604395Y36201763D02*
X7509157Y36201763D01*
X7509157Y36201763D02*
X7413919Y36154144D01*
X7413919Y36154144D02*
X7366300Y36058906D01*
X7366300Y36058906D02*
X7366300Y35820811D01*
X7366300Y35820811D02*
X7318681Y35725573D01*
X7747253Y35249382D02*
X7080586Y35249382D01*
X7271062Y35249382D02*
X7175824Y35201763D01*
X7175824Y35201763D02*
X7128205Y35154144D01*
X7128205Y35154144D02*
X7080586Y35058906D01*
X7080586Y35058906D02*
X7080586Y34963668D01*
X7747253Y34201763D02*
X7223443Y34201763D01*
X7223443Y34201763D02*
X7128205Y34249382D01*
X7128205Y34249382D02*
X7080586Y34344620D01*
X7080586Y34344620D02*
X7080586Y34535096D01*
X7080586Y34535096D02*
X7128205Y34630334D01*
X7699634Y34201763D02*
X7747253Y34297001D01*
X7747253Y34297001D02*
X7747253Y34535096D01*
X7747253Y34535096D02*
X7699634Y34630334D01*
X7699634Y34630334D02*
X7604395Y34677953D01*
X7604395Y34677953D02*
X7509157Y34677953D01*
X7509157Y34677953D02*
X7413919Y34630334D01*
X7413919Y34630334D02*
X7366300Y34535096D01*
X7366300Y34535096D02*
X7366300Y34297001D01*
X7366300Y34297001D02*
X7318681Y34201763D01*
X7699634Y33297001D02*
X7747253Y33392239D01*
X7747253Y33392239D02*
X7747253Y33582715D01*
X7747253Y33582715D02*
X7699634Y33677953D01*
X7699634Y33677953D02*
X7652014Y33725572D01*
X7652014Y33725572D02*
X7556776Y33773191D01*
X7556776Y33773191D02*
X7271062Y33773191D01*
X7271062Y33773191D02*
X7175824Y33725572D01*
X7175824Y33725572D02*
X7128205Y33677953D01*
X7128205Y33677953D02*
X7080586Y33582715D01*
X7080586Y33582715D02*
X7080586Y33392239D01*
X7080586Y33392239D02*
X7128205Y33297001D01*
X7747253Y32868429D02*
X6747253Y32868429D01*
X7747253Y32439858D02*
X7223443Y32439858D01*
X7223443Y32439858D02*
X7128205Y32487477D01*
X7128205Y32487477D02*
X7080586Y32582715D01*
X7080586Y32582715D02*
X7080586Y32725572D01*
X7080586Y32725572D02*
X7128205Y32820810D01*
X7128205Y32820810D02*
X7175824Y32868429D01*
X7080586Y31535096D02*
X7747253Y31535096D01*
X7080586Y31963667D02*
X7604395Y31963667D01*
X7604395Y31963667D02*
X7699634Y31916048D01*
X7699634Y31916048D02*
X7747253Y31820810D01*
X7747253Y31820810D02*
X7747253Y31677953D01*
X7747253Y31677953D02*
X7699634Y31582715D01*
X7699634Y31582715D02*
X7652014Y31535096D01*
X7080586Y31201762D02*
X7080586Y30820810D01*
X6747253Y31058905D02*
X7604395Y31058905D01*
X7604395Y31058905D02*
X7699634Y31011286D01*
X7699634Y31011286D02*
X7747253Y30916048D01*
X7747253Y30916048D02*
X7747253Y30820810D01*
X7699634Y30106524D02*
X7747253Y30201762D01*
X7747253Y30201762D02*
X7747253Y30392238D01*
X7747253Y30392238D02*
X7699634Y30487476D01*
X7699634Y30487476D02*
X7604395Y30535095D01*
X7604395Y30535095D02*
X7223443Y30535095D01*
X7223443Y30535095D02*
X7128205Y30487476D01*
X7128205Y30487476D02*
X7080586Y30392238D01*
X7080586Y30392238D02*
X7080586Y30201762D01*
X7080586Y30201762D02*
X7128205Y30106524D01*
X7128205Y30106524D02*
X7223443Y30058905D01*
X7223443Y30058905D02*
X7318681Y30058905D01*
X7318681Y30058905D02*
X7413919Y30535095D01*
X7223443Y28535095D02*
X7271062Y28392238D01*
X7271062Y28392238D02*
X7318681Y28344619D01*
X7318681Y28344619D02*
X7413919Y28297000D01*
X7413919Y28297000D02*
X7556776Y28297000D01*
X7556776Y28297000D02*
X7652014Y28344619D01*
X7652014Y28344619D02*
X7699634Y28392238D01*
X7699634Y28392238D02*
X7747253Y28487476D01*
X7747253Y28487476D02*
X7747253Y28868428D01*
X7747253Y28868428D02*
X6747253Y28868428D01*
X6747253Y28868428D02*
X6747253Y28535095D01*
X6747253Y28535095D02*
X6794872Y28439857D01*
X6794872Y28439857D02*
X6842491Y28392238D01*
X6842491Y28392238D02*
X6937729Y28344619D01*
X6937729Y28344619D02*
X7032967Y28344619D01*
X7032967Y28344619D02*
X7128205Y28392238D01*
X7128205Y28392238D02*
X7175824Y28439857D01*
X7175824Y28439857D02*
X7223443Y28535095D01*
X7223443Y28535095D02*
X7223443Y28868428D01*
X7747253Y27725571D02*
X7699634Y27820809D01*
X7699634Y27820809D02*
X7652014Y27868428D01*
X7652014Y27868428D02*
X7556776Y27916047D01*
X7556776Y27916047D02*
X7271062Y27916047D01*
X7271062Y27916047D02*
X7175824Y27868428D01*
X7175824Y27868428D02*
X7128205Y27820809D01*
X7128205Y27820809D02*
X7080586Y27725571D01*
X7080586Y27725571D02*
X7080586Y27582714D01*
X7080586Y27582714D02*
X7128205Y27487476D01*
X7128205Y27487476D02*
X7175824Y27439857D01*
X7175824Y27439857D02*
X7271062Y27392238D01*
X7271062Y27392238D02*
X7556776Y27392238D01*
X7556776Y27392238D02*
X7652014Y27439857D01*
X7652014Y27439857D02*
X7699634Y27487476D01*
X7699634Y27487476D02*
X7747253Y27582714D01*
X7747253Y27582714D02*
X7747253Y27725571D01*
X7747253Y26535095D02*
X7223443Y26535095D01*
X7223443Y26535095D02*
X7128205Y26582714D01*
X7128205Y26582714D02*
X7080586Y26677952D01*
X7080586Y26677952D02*
X7080586Y26868428D01*
X7080586Y26868428D02*
X7128205Y26963666D01*
X7699634Y26535095D02*
X7747253Y26630333D01*
X7747253Y26630333D02*
X7747253Y26868428D01*
X7747253Y26868428D02*
X7699634Y26963666D01*
X7699634Y26963666D02*
X7604395Y27011285D01*
X7604395Y27011285D02*
X7509157Y27011285D01*
X7509157Y27011285D02*
X7413919Y26963666D01*
X7413919Y26963666D02*
X7366300Y26868428D01*
X7366300Y26868428D02*
X7366300Y26630333D01*
X7366300Y26630333D02*
X7318681Y26535095D01*
X7747253Y26058904D02*
X7080586Y26058904D01*
X7271062Y26058904D02*
X7175824Y26011285D01*
X7175824Y26011285D02*
X7128205Y25963666D01*
X7128205Y25963666D02*
X7080586Y25868428D01*
X7080586Y25868428D02*
X7080586Y25773190D01*
X7747253Y25011285D02*
X6747253Y25011285D01*
X7699634Y25011285D02*
X7747253Y25106523D01*
X7747253Y25106523D02*
X7747253Y25296999D01*
X7747253Y25296999D02*
X7699634Y25392237D01*
X7699634Y25392237D02*
X7652014Y25439856D01*
X7652014Y25439856D02*
X7556776Y25487475D01*
X7556776Y25487475D02*
X7271062Y25487475D01*
X7271062Y25487475D02*
X7175824Y25439856D01*
X7175824Y25439856D02*
X7128205Y25392237D01*
X7128205Y25392237D02*
X7080586Y25296999D01*
X7080586Y25296999D02*
X7080586Y25106523D01*
X7080586Y25106523D02*
X7128205Y25011285D01*
X7747253Y23773189D02*
X6747253Y23773189D01*
X6747253Y23773189D02*
X6747253Y23392237D01*
X6747253Y23392237D02*
X6794872Y23296999D01*
X6794872Y23296999D02*
X6842491Y23249380D01*
X6842491Y23249380D02*
X6937729Y23201761D01*
X6937729Y23201761D02*
X7080586Y23201761D01*
X7080586Y23201761D02*
X7175824Y23249380D01*
X7175824Y23249380D02*
X7223443Y23296999D01*
X7223443Y23296999D02*
X7271062Y23392237D01*
X7271062Y23392237D02*
X7271062Y23773189D01*
X7747253Y22201761D02*
X7271062Y22535094D01*
X7747253Y22773189D02*
X6747253Y22773189D01*
X6747253Y22773189D02*
X6747253Y22392237D01*
X6747253Y22392237D02*
X6794872Y22296999D01*
X6794872Y22296999D02*
X6842491Y22249380D01*
X6842491Y22249380D02*
X6937729Y22201761D01*
X6937729Y22201761D02*
X7080586Y22201761D01*
X7080586Y22201761D02*
X7175824Y22249380D01*
X7175824Y22249380D02*
X7223443Y22296999D01*
X7223443Y22296999D02*
X7271062Y22392237D01*
X7271062Y22392237D02*
X7271062Y22773189D01*
X6747253Y21582713D02*
X6747253Y21392237D01*
X6747253Y21392237D02*
X6794872Y21296999D01*
X6794872Y21296999D02*
X6890110Y21201761D01*
X6890110Y21201761D02*
X7080586Y21154142D01*
X7080586Y21154142D02*
X7413919Y21154142D01*
X7413919Y21154142D02*
X7604395Y21201761D01*
X7604395Y21201761D02*
X7699634Y21296999D01*
X7699634Y21296999D02*
X7747253Y21392237D01*
X7747253Y21392237D02*
X7747253Y21582713D01*
X7747253Y21582713D02*
X7699634Y21677951D01*
X7699634Y21677951D02*
X7604395Y21773189D01*
X7604395Y21773189D02*
X7413919Y21820808D01*
X7413919Y21820808D02*
X7080586Y21820808D01*
X7080586Y21820808D02*
X6890110Y21773189D01*
X6890110Y21773189D02*
X6794872Y21677951D01*
X6794872Y21677951D02*
X6747253Y21582713D01*
X6747253Y20868427D02*
X6747253Y20296999D01*
X7747253Y20582713D02*
X6747253Y20582713D01*
X6747253Y19773189D02*
X6747253Y19582713D01*
X6747253Y19582713D02*
X6794872Y19487475D01*
X6794872Y19487475D02*
X6890110Y19392237D01*
X6890110Y19392237D02*
X7080586Y19344618D01*
X7080586Y19344618D02*
X7413919Y19344618D01*
X7413919Y19344618D02*
X7604395Y19392237D01*
X7604395Y19392237D02*
X7699634Y19487475D01*
X7699634Y19487475D02*
X7747253Y19582713D01*
X7747253Y19582713D02*
X7747253Y19773189D01*
X7747253Y19773189D02*
X7699634Y19868427D01*
X7699634Y19868427D02*
X7604395Y19963665D01*
X7604395Y19963665D02*
X7413919Y20011284D01*
X7413919Y20011284D02*
X7080586Y20011284D01*
X7080586Y20011284D02*
X6890110Y19963665D01*
X6890110Y19963665D02*
X6794872Y19868427D01*
X6794872Y19868427D02*
X6747253Y19773189D01*
X7747253Y18392237D02*
X7747253Y18963665D01*
X7747253Y18677951D02*
X6747253Y18677951D01*
X6747253Y18677951D02*
X6890110Y18773189D01*
X6890110Y18773189D02*
X6985348Y18868427D01*
X6985348Y18868427D02*
X7032967Y18963665D01*
X9738149Y41344621D02*
X9690530Y41392240D01*
X9690530Y41392240D02*
X9547673Y41487478D01*
X9547673Y41487478D02*
X9452435Y41535097D01*
X9452435Y41535097D02*
X9309578Y41582716D01*
X9309578Y41582716D02*
X9071482Y41630335D01*
X9071482Y41630335D02*
X8881006Y41630335D01*
X8881006Y41630335D02*
X8642911Y41582716D01*
X8642911Y41582716D02*
X8500054Y41535097D01*
X8500054Y41535097D02*
X8404816Y41487478D01*
X8404816Y41487478D02*
X8261958Y41392240D01*
X8261958Y41392240D02*
X8214339Y41344621D01*
X9309578Y40535097D02*
X9357197Y40630335D01*
X9357197Y40630335D02*
X9357197Y40820811D01*
X9357197Y40820811D02*
X9309578Y40916049D01*
X9309578Y40916049D02*
X9261958Y40963668D01*
X9261958Y40963668D02*
X9166720Y41011287D01*
X9166720Y41011287D02*
X8881006Y41011287D01*
X8881006Y41011287D02*
X8785768Y40963668D01*
X8785768Y40963668D02*
X8738149Y40916049D01*
X8738149Y40916049D02*
X8690530Y40820811D01*
X8690530Y40820811D02*
X8690530Y40630335D01*
X8690530Y40630335D02*
X8738149Y40535097D01*
X9738149Y40201763D02*
X9690530Y40154144D01*
X9690530Y40154144D02*
X9547673Y40058906D01*
X9547673Y40058906D02*
X9452435Y40011287D01*
X9452435Y40011287D02*
X9309578Y39963668D01*
X9309578Y39963668D02*
X9071482Y39916049D01*
X9071482Y39916049D02*
X8881006Y39916049D01*
X8881006Y39916049D02*
X8642911Y39963668D01*
X8642911Y39963668D02*
X8500054Y40011287D01*
X8500054Y40011287D02*
X8404816Y40058906D01*
X8404816Y40058906D02*
X8261958Y40154144D01*
X8261958Y40154144D02*
X8214339Y40201763D01*
X8452435Y38725572D02*
X8404816Y38677953D01*
X8404816Y38677953D02*
X8357197Y38582715D01*
X8357197Y38582715D02*
X8357197Y38344620D01*
X8357197Y38344620D02*
X8404816Y38249382D01*
X8404816Y38249382D02*
X8452435Y38201763D01*
X8452435Y38201763D02*
X8547673Y38154144D01*
X8547673Y38154144D02*
X8642911Y38154144D01*
X8642911Y38154144D02*
X8785768Y38201763D01*
X8785768Y38201763D02*
X9357197Y38773191D01*
X9357197Y38773191D02*
X9357197Y38154144D01*
X8357197Y37535096D02*
X8357197Y37439858D01*
X8357197Y37439858D02*
X8404816Y37344620D01*
X8404816Y37344620D02*
X8452435Y37297001D01*
X8452435Y37297001D02*
X8547673Y37249382D01*
X8547673Y37249382D02*
X8738149Y37201763D01*
X8738149Y37201763D02*
X8976244Y37201763D01*
X8976244Y37201763D02*
X9166720Y37249382D01*
X9166720Y37249382D02*
X9261958Y37297001D01*
X9261958Y37297001D02*
X9309578Y37344620D01*
X9309578Y37344620D02*
X9357197Y37439858D01*
X9357197Y37439858D02*
X9357197Y37535096D01*
X9357197Y37535096D02*
X9309578Y37630334D01*
X9309578Y37630334D02*
X9261958Y37677953D01*
X9261958Y37677953D02*
X9166720Y37725572D01*
X9166720Y37725572D02*
X8976244Y37773191D01*
X8976244Y37773191D02*
X8738149Y37773191D01*
X8738149Y37773191D02*
X8547673Y37725572D01*
X8547673Y37725572D02*
X8452435Y37677953D01*
X8452435Y37677953D02*
X8404816Y37630334D01*
X8404816Y37630334D02*
X8357197Y37535096D01*
X8452435Y36820810D02*
X8404816Y36773191D01*
X8404816Y36773191D02*
X8357197Y36677953D01*
X8357197Y36677953D02*
X8357197Y36439858D01*
X8357197Y36439858D02*
X8404816Y36344620D01*
X8404816Y36344620D02*
X8452435Y36297001D01*
X8452435Y36297001D02*
X8547673Y36249382D01*
X8547673Y36249382D02*
X8642911Y36249382D01*
X8642911Y36249382D02*
X8785768Y36297001D01*
X8785768Y36297001D02*
X9357197Y36868429D01*
X9357197Y36868429D02*
X9357197Y36249382D01*
X8690530Y35392239D02*
X9357197Y35392239D01*
X8309578Y35630334D02*
X9023863Y35868429D01*
X9023863Y35868429D02*
X9023863Y35249382D01*
X9357197Y34106524D02*
X8357197Y34106524D01*
X8833387Y34106524D02*
X8833387Y33535096D01*
X9357197Y33535096D02*
X8357197Y33535096D01*
X9357197Y32916048D02*
X9309578Y33011286D01*
X9309578Y33011286D02*
X9261958Y33058905D01*
X9261958Y33058905D02*
X9166720Y33106524D01*
X9166720Y33106524D02*
X8881006Y33106524D01*
X8881006Y33106524D02*
X8785768Y33058905D01*
X8785768Y33058905D02*
X8738149Y33011286D01*
X8738149Y33011286D02*
X8690530Y32916048D01*
X8690530Y32916048D02*
X8690530Y32773191D01*
X8690530Y32773191D02*
X8738149Y32677953D01*
X8738149Y32677953D02*
X8785768Y32630334D01*
X8785768Y32630334D02*
X8881006Y32582715D01*
X8881006Y32582715D02*
X9166720Y32582715D01*
X9166720Y32582715D02*
X9261958Y32630334D01*
X9261958Y32630334D02*
X9309578Y32677953D01*
X9309578Y32677953D02*
X9357197Y32773191D01*
X9357197Y32773191D02*
X9357197Y32916048D01*
X9309578Y31725572D02*
X9357197Y31820810D01*
X9357197Y31820810D02*
X9357197Y32011286D01*
X9357197Y32011286D02*
X9309578Y32106524D01*
X9309578Y32106524D02*
X9261958Y32154143D01*
X9261958Y32154143D02*
X9166720Y32201762D01*
X9166720Y32201762D02*
X8881006Y32201762D01*
X8881006Y32201762D02*
X8785768Y32154143D01*
X8785768Y32154143D02*
X8738149Y32106524D01*
X8738149Y32106524D02*
X8690530Y32011286D01*
X8690530Y32011286D02*
X8690530Y31820810D01*
X8690530Y31820810D02*
X8738149Y31725572D01*
X9357197Y31297000D02*
X8357197Y31297000D01*
X9357197Y30868429D02*
X8833387Y30868429D01*
X8833387Y30868429D02*
X8738149Y30916048D01*
X8738149Y30916048D02*
X8690530Y31011286D01*
X8690530Y31011286D02*
X8690530Y31154143D01*
X8690530Y31154143D02*
X8738149Y31249381D01*
X8738149Y31249381D02*
X8785768Y31297000D01*
X9309578Y30439857D02*
X9357197Y30344619D01*
X9357197Y30344619D02*
X9357197Y30154143D01*
X9357197Y30154143D02*
X9309578Y30058905D01*
X9309578Y30058905D02*
X9214339Y30011286D01*
X9214339Y30011286D02*
X9166720Y30011286D01*
X9166720Y30011286D02*
X9071482Y30058905D01*
X9071482Y30058905D02*
X9023863Y30154143D01*
X9023863Y30154143D02*
X9023863Y30297000D01*
X9023863Y30297000D02*
X8976244Y30392238D01*
X8976244Y30392238D02*
X8881006Y30439857D01*
X8881006Y30439857D02*
X8833387Y30439857D01*
X8833387Y30439857D02*
X8738149Y30392238D01*
X8738149Y30392238D02*
X8690530Y30297000D01*
X8690530Y30297000D02*
X8690530Y30154143D01*
X8690530Y30154143D02*
X8738149Y30058905D01*
X9309578Y29154143D02*
X9357197Y29249381D01*
X9357197Y29249381D02*
X9357197Y29439857D01*
X9357197Y29439857D02*
X9309578Y29535095D01*
X9309578Y29535095D02*
X9261958Y29582714D01*
X9261958Y29582714D02*
X9166720Y29630333D01*
X9166720Y29630333D02*
X8881006Y29630333D01*
X8881006Y29630333D02*
X8785768Y29582714D01*
X8785768Y29582714D02*
X8738149Y29535095D01*
X8738149Y29535095D02*
X8690530Y29439857D01*
X8690530Y29439857D02*
X8690530Y29249381D01*
X8690530Y29249381D02*
X8738149Y29154143D01*
X9357197Y28725571D02*
X8357197Y28725571D01*
X9357197Y28297000D02*
X8833387Y28297000D01*
X8833387Y28297000D02*
X8738149Y28344619D01*
X8738149Y28344619D02*
X8690530Y28439857D01*
X8690530Y28439857D02*
X8690530Y28582714D01*
X8690530Y28582714D02*
X8738149Y28677952D01*
X8738149Y28677952D02*
X8785768Y28725571D01*
X8690530Y27392238D02*
X9357197Y27392238D01*
X8690530Y27820809D02*
X9214339Y27820809D01*
X9214339Y27820809D02*
X9309578Y27773190D01*
X9309578Y27773190D02*
X9357197Y27677952D01*
X9357197Y27677952D02*
X9357197Y27535095D01*
X9357197Y27535095D02*
X9309578Y27439857D01*
X9309578Y27439857D02*
X9261958Y27392238D01*
X9357197Y26773190D02*
X9309578Y26868428D01*
X9309578Y26868428D02*
X9214339Y26916047D01*
X9214339Y26916047D02*
X8357197Y26916047D01*
X9309578Y26011285D02*
X9357197Y26106523D01*
X9357197Y26106523D02*
X9357197Y26296999D01*
X9357197Y26296999D02*
X9309578Y26392237D01*
X9309578Y26392237D02*
X9214339Y26439856D01*
X9214339Y26439856D02*
X8833387Y26439856D01*
X8833387Y26439856D02*
X8738149Y26392237D01*
X8738149Y26392237D02*
X8690530Y26296999D01*
X8690530Y26296999D02*
X8690530Y26106523D01*
X8690530Y26106523D02*
X8738149Y26011285D01*
X8738149Y26011285D02*
X8833387Y25963666D01*
X8833387Y25963666D02*
X8928625Y25963666D01*
X8928625Y25963666D02*
X9023863Y26439856D01*
X9357197Y24296999D02*
X9357197Y24773189D01*
X9357197Y24773189D02*
X8357197Y24773189D01*
X8690530Y23535094D02*
X9357197Y23535094D01*
X8690530Y23963665D02*
X9214339Y23963665D01*
X9214339Y23963665D02*
X9309578Y23916046D01*
X9309578Y23916046D02*
X9357197Y23820808D01*
X9357197Y23820808D02*
X9357197Y23677951D01*
X9357197Y23677951D02*
X9309578Y23582713D01*
X9309578Y23582713D02*
X9261958Y23535094D01*
X8690530Y23154141D02*
X8690530Y22630332D01*
X8690530Y22630332D02*
X9357197Y23154141D01*
X9357197Y23154141D02*
X9357197Y22630332D01*
X9309578Y21868427D02*
X9357197Y21963665D01*
X9357197Y21963665D02*
X9357197Y22154141D01*
X9357197Y22154141D02*
X9309578Y22249379D01*
X9309578Y22249379D02*
X9214339Y22296998D01*
X9214339Y22296998D02*
X8833387Y22296998D01*
X8833387Y22296998D02*
X8738149Y22249379D01*
X8738149Y22249379D02*
X8690530Y22154141D01*
X8690530Y22154141D02*
X8690530Y21963665D01*
X8690530Y21963665D02*
X8738149Y21868427D01*
X8738149Y21868427D02*
X8833387Y21820808D01*
X8833387Y21820808D02*
X8928625Y21820808D01*
X8928625Y21820808D02*
X9023863Y22296998D01*
X9357197Y21392236D02*
X8690530Y21392236D01*
X8881006Y21392236D02*
X8785768Y21344617D01*
X8785768Y21344617D02*
X8738149Y21296998D01*
X8738149Y21296998D02*
X8690530Y21201760D01*
X8690530Y21201760D02*
X8690530Y21106522D01*
X8690530Y20773188D02*
X9357197Y20773188D01*
X8785768Y20773188D02*
X8738149Y20725569D01*
X8738149Y20725569D02*
X8690530Y20630331D01*
X8690530Y20630331D02*
X8690530Y20487474D01*
X8690530Y20487474D02*
X8738149Y20392236D01*
X8738149Y20392236D02*
X8833387Y20344617D01*
X8833387Y20344617D02*
X9357197Y20344617D01*
X9309578Y19820807D02*
X9357197Y19820807D01*
X9357197Y19820807D02*
X9452435Y19868426D01*
X9452435Y19868426D02*
X9500054Y19916045D01*
X8357197Y18773188D02*
X8357197Y18201760D01*
X9357197Y18487474D02*
X8357197Y18487474D01*
X9309578Y17487474D02*
X9357197Y17582712D01*
X9357197Y17582712D02*
X9357197Y17773188D01*
X9357197Y17773188D02*
X9309578Y17868426D01*
X9309578Y17868426D02*
X9214339Y17916045D01*
X9214339Y17916045D02*
X8833387Y17916045D01*
X8833387Y17916045D02*
X8738149Y17868426D01*
X8738149Y17868426D02*
X8690530Y17773188D01*
X8690530Y17773188D02*
X8690530Y17582712D01*
X8690530Y17582712D02*
X8738149Y17487474D01*
X8738149Y17487474D02*
X8833387Y17439855D01*
X8833387Y17439855D02*
X8928625Y17439855D01*
X8928625Y17439855D02*
X9023863Y17916045D01*
X9309578Y16582712D02*
X9357197Y16677950D01*
X9357197Y16677950D02*
X9357197Y16868426D01*
X9357197Y16868426D02*
X9309578Y16963664D01*
X9309578Y16963664D02*
X9261958Y17011283D01*
X9261958Y17011283D02*
X9166720Y17058902D01*
X9166720Y17058902D02*
X8881006Y17058902D01*
X8881006Y17058902D02*
X8785768Y17011283D01*
X8785768Y17011283D02*
X8738149Y16963664D01*
X8738149Y16963664D02*
X8690530Y16868426D01*
X8690530Y16868426D02*
X8690530Y16677950D01*
X8690530Y16677950D02*
X8738149Y16582712D01*
X9357197Y16154140D02*
X8357197Y16154140D01*
X9357197Y15725569D02*
X8833387Y15725569D01*
X8833387Y15725569D02*
X8738149Y15773188D01*
X8738149Y15773188D02*
X8690530Y15868426D01*
X8690530Y15868426D02*
X8690530Y16011283D01*
X8690530Y16011283D02*
X8738149Y16106521D01*
X8738149Y16106521D02*
X8785768Y16154140D01*
X8690530Y15249378D02*
X9357197Y15249378D01*
X8785768Y15249378D02*
X8738149Y15201759D01*
X8738149Y15201759D02*
X8690530Y15106521D01*
X8690530Y15106521D02*
X8690530Y14963664D01*
X8690530Y14963664D02*
X8738149Y14868426D01*
X8738149Y14868426D02*
X8833387Y14820807D01*
X8833387Y14820807D02*
X9357197Y14820807D01*
X9357197Y14344616D02*
X8690530Y14344616D01*
X8357197Y14344616D02*
X8404816Y14392235D01*
X8404816Y14392235D02*
X8452435Y14344616D01*
X8452435Y14344616D02*
X8404816Y14296997D01*
X8404816Y14296997D02*
X8357197Y14344616D01*
X8357197Y14344616D02*
X8452435Y14344616D01*
X9357197Y13868426D02*
X8357197Y13868426D01*
X8976244Y13773188D02*
X9357197Y13487474D01*
X8690530Y13487474D02*
X9071482Y13868426D01*
X9357197Y11487473D02*
X9357197Y11535092D01*
X9357197Y11535092D02*
X9309578Y11630331D01*
X9309578Y11630331D02*
X9166720Y11773188D01*
X9166720Y11773188D02*
X8881006Y12011283D01*
X8881006Y12011283D02*
X8738149Y12106521D01*
X8738149Y12106521D02*
X8595292Y12154140D01*
X8595292Y12154140D02*
X8500054Y12154140D01*
X8500054Y12154140D02*
X8404816Y12106521D01*
X8404816Y12106521D02*
X8357197Y12011283D01*
X8357197Y12011283D02*
X8357197Y11963664D01*
X8357197Y11963664D02*
X8404816Y11868426D01*
X8404816Y11868426D02*
X8500054Y11820807D01*
X8500054Y11820807D02*
X8547673Y11820807D01*
X8547673Y11820807D02*
X8642911Y11868426D01*
X8642911Y11868426D02*
X8690530Y11916045D01*
X8690530Y11916045D02*
X8881006Y12201759D01*
X8881006Y12201759D02*
X8928625Y12249378D01*
X8928625Y12249378D02*
X9023863Y12296997D01*
X9023863Y12296997D02*
X9166720Y12296997D01*
X9166720Y12296997D02*
X9261958Y12249378D01*
X9261958Y12249378D02*
X9309578Y12201759D01*
X9309578Y12201759D02*
X9357197Y12106521D01*
X9357197Y12106521D02*
X9357197Y11963664D01*
X9357197Y11963664D02*
X9309578Y11868426D01*
X9309578Y11868426D02*
X9261958Y11820807D01*
X9261958Y11820807D02*
X9071482Y11677950D01*
X9071482Y11677950D02*
X8928625Y11630331D01*
X8928625Y11630331D02*
X8833387Y11630331D01*
X9071482Y10344616D02*
X9071482Y9868426D01*
X9357197Y10439854D02*
X8357197Y10106521D01*
X8357197Y10106521D02*
X9357197Y9773188D01*
X9357197Y9439854D02*
X8690530Y9439854D01*
X8881006Y9439854D02*
X8785768Y9392235D01*
X8785768Y9392235D02*
X8738149Y9344616D01*
X8738149Y9344616D02*
X8690530Y9249378D01*
X8690530Y9249378D02*
X8690530Y9154140D01*
X9309578Y8392235D02*
X9357197Y8487473D01*
X9357197Y8487473D02*
X9357197Y8677949D01*
X9357197Y8677949D02*
X9309578Y8773187D01*
X9309578Y8773187D02*
X9261958Y8820806D01*
X9261958Y8820806D02*
X9166720Y8868425D01*
X9166720Y8868425D02*
X8881006Y8868425D01*
X8881006Y8868425D02*
X8785768Y8820806D01*
X8785768Y8820806D02*
X8738149Y8773187D01*
X8738149Y8773187D02*
X8690530Y8677949D01*
X8690530Y8677949D02*
X8690530Y8487473D01*
X8690530Y8487473D02*
X8738149Y8392235D01*
X9357197Y7963663D02*
X8357197Y7963663D01*
X9357197Y7535092D02*
X8833387Y7535092D01*
X8833387Y7535092D02*
X8738149Y7582711D01*
X8738149Y7582711D02*
X8690530Y7677949D01*
X8690530Y7677949D02*
X8690530Y7820806D01*
X8690530Y7820806D02*
X8738149Y7916044D01*
X8738149Y7916044D02*
X8785768Y7963663D01*
X9357197Y7058901D02*
X8690530Y7058901D01*
X8357197Y7058901D02*
X8404816Y7106520D01*
X8404816Y7106520D02*
X8452435Y7058901D01*
X8452435Y7058901D02*
X8404816Y7011282D01*
X8404816Y7011282D02*
X8357197Y7058901D01*
X8357197Y7058901D02*
X8452435Y7058901D01*
X8690530Y6725568D02*
X8690530Y6344616D01*
X8357197Y6582711D02*
X9214339Y6582711D01*
X9214339Y6582711D02*
X9309578Y6535092D01*
X9309578Y6535092D02*
X9357197Y6439854D01*
X9357197Y6439854D02*
X9357197Y6344616D01*
X9309578Y5630330D02*
X9357197Y5725568D01*
X9357197Y5725568D02*
X9357197Y5916044D01*
X9357197Y5916044D02*
X9309578Y6011282D01*
X9309578Y6011282D02*
X9214339Y6058901D01*
X9214339Y6058901D02*
X8833387Y6058901D01*
X8833387Y6058901D02*
X8738149Y6011282D01*
X8738149Y6011282D02*
X8690530Y5916044D01*
X8690530Y5916044D02*
X8690530Y5725568D01*
X8690530Y5725568D02*
X8738149Y5630330D01*
X8738149Y5630330D02*
X8833387Y5582711D01*
X8833387Y5582711D02*
X8928625Y5582711D01*
X8928625Y5582711D02*
X9023863Y6058901D01*
X9357197Y5154139D02*
X8357197Y5154139D01*
X8976244Y5058901D02*
X9357197Y4773187D01*
X8690530Y4773187D02*
X9071482Y5154139D01*
X8690530Y4487472D02*
X8690530Y4106520D01*
X8357197Y4344615D02*
X9214339Y4344615D01*
X9214339Y4344615D02*
X9309578Y4296996D01*
X9309578Y4296996D02*
X9357197Y4201758D01*
X9357197Y4201758D02*
X9357197Y4106520D01*
X8690530Y3344615D02*
X9357197Y3344615D01*
X8690530Y3773186D02*
X9214339Y3773186D01*
X9214339Y3773186D02*
X9309578Y3725567D01*
X9309578Y3725567D02*
X9357197Y3630329D01*
X9357197Y3630329D02*
X9357197Y3487472D01*
X9357197Y3487472D02*
X9309578Y3392234D01*
X9309578Y3392234D02*
X9261958Y3344615D01*
X9357197Y2868424D02*
X8690530Y2868424D01*
X8881006Y2868424D02*
X8785768Y2820805D01*
X8785768Y2820805D02*
X8738149Y2773186D01*
X8738149Y2773186D02*
X8690530Y2677948D01*
X8690530Y2677948D02*
X8690530Y2582710D01*
%LPC*%
D12*
%TO.C,T7*%
X40200006Y65600008D03*
%TD*%
%TO.C,T6*%
X37700006Y62900008D03*
%TD*%
%TO.C,T5*%
X27500006Y72200008D03*
%TD*%
%TO.C,T4*%
X46900006Y52200008D03*
%TD*%
%TO.C,T3*%
X46900006Y55990008D03*
%TD*%
%TO.C,T2*%
X29600006Y50200008D03*
%TD*%
%TO.C,T1*%
X25600006Y49900008D03*
%TD*%
D13*
%TO.C, *%
X25400006Y2540008D03*
%TD*%
%TO.C, *%
X25400006Y5080008D03*
%TD*%
%TO.C, *%
X25400006Y7620008D03*
%TD*%
%TO.C, *%
X25400006Y10160008D03*
%TD*%
%TO.C, *%
X25400006Y12700008D03*
%TD*%
%TO.C, *%
X25400006Y15240008D03*
%TD*%
%TO.C, *%
X25400006Y17780008D03*
%TD*%
%TO.C, *%
X25400006Y20320008D03*
%TD*%
%TO.C, *%
X25400006Y33020008D03*
%TD*%
%TO.C, *%
X25400006Y35560008D03*
%TD*%
%TO.C, *%
X25400006Y27940008D03*
%TD*%
%TO.C, *%
X25400006Y22860008D03*
%TD*%
%TO.C, *%
X25400006Y25400008D03*
%TD*%
%TO.C, *%
X25400006Y30480008D03*
%TD*%
%TO.C, *%
X27940006Y2540008D03*
%TD*%
%TO.C, *%
X27940006Y5080008D03*
%TD*%
%TO.C, *%
X27940006Y7620008D03*
%TD*%
%TO.C, *%
X27940006Y10160008D03*
%TD*%
%TO.C, *%
X27940006Y12700008D03*
%TD*%
%TO.C, *%
X27940006Y15240008D03*
%TD*%
%TO.C, *%
X27940006Y17780008D03*
%TD*%
%TO.C, *%
X27940006Y20320008D03*
%TD*%
%TO.C, *%
X27940006Y33020008D03*
%TD*%
%TO.C, *%
X27940006Y35560008D03*
%TD*%
%TO.C, *%
X27940006Y27940008D03*
%TD*%
%TO.C, *%
X27940006Y22860008D03*
%TD*%
%TO.C, *%
X27940006Y25400008D03*
%TD*%
%TO.C, *%
X27940006Y30480008D03*
%TD*%
%TO.C, *%
X30480006Y2540008D03*
%TD*%
%TO.C, *%
X30480006Y5080008D03*
%TD*%
%TO.C, *%
X30480006Y7620008D03*
%TD*%
%TO.C, *%
X30480006Y10160008D03*
%TD*%
%TO.C, *%
X30480006Y12700008D03*
%TD*%
%TO.C, *%
X30480006Y15240008D03*
%TD*%
%TO.C, *%
X30480006Y17780008D03*
%TD*%
%TO.C, *%
X30480006Y20320008D03*
%TD*%
%TO.C, *%
X30480006Y33020008D03*
%TD*%
%TO.C, *%
X30480006Y35560008D03*
%TD*%
%TO.C, *%
X30480006Y27940008D03*
%TD*%
%TO.C, *%
X30480006Y22860008D03*
%TD*%
%TO.C, *%
X30480006Y25400008D03*
%TD*%
%TO.C, *%
X30480006Y30480008D03*
%TD*%
%TO.C, *%
X33020006Y35560008D03*
%TD*%
%TO.C, *%
X35560006Y35560008D03*
%TD*%
%TO.C, *%
X38100006Y35560008D03*
%TD*%
%TO.C, *%
X40640006Y35560008D03*
%TD*%
%TO.C, *%
X43180006Y35560008D03*
%TD*%
%TO.C, *%
X45720006Y35560008D03*
%TD*%
%TO.C, *%
X48260006Y35560008D03*
%TD*%
%TO.C, *%
X50800006Y35560008D03*
%TD*%
%TO.C, *%
X53340006Y35560008D03*
%TD*%
%TO.C, *%
X33020006Y33020008D03*
%TD*%
%TO.C, *%
X35560006Y33020008D03*
%TD*%
%TO.C, *%
X38100006Y33020008D03*
%TD*%
%TO.C, *%
X40640006Y33020008D03*
%TD*%
%TO.C, *%
X43180006Y33020008D03*
%TD*%
%TO.C, *%
X45720006Y33020008D03*
%TD*%
%TO.C, *%
X48260006Y33020008D03*
%TD*%
%TO.C, *%
X50800006Y33020008D03*
%TD*%
%TO.C, *%
X53340006Y33020008D03*
%TD*%
%TO.C, *%
X33020006Y30480008D03*
%TD*%
%TO.C, *%
X35560006Y30480008D03*
%TD*%
%TO.C, *%
X38100006Y30480008D03*
%TD*%
%TO.C, *%
X40640006Y30480008D03*
%TD*%
%TO.C, *%
X43180006Y30480008D03*
%TD*%
%TO.C, *%
X45720006Y30480008D03*
%TD*%
%TO.C, *%
X48260006Y30480008D03*
%TD*%
%TO.C, *%
X50800006Y30480008D03*
%TD*%
%TO.C, *%
X53340006Y30480008D03*
%TD*%
%TO.C, *%
X33020006Y27940008D03*
%TD*%
%TO.C, *%
X35560006Y27940008D03*
%TD*%
%TO.C, *%
X38100006Y27940008D03*
%TD*%
%TO.C, *%
X40640006Y27940008D03*
%TD*%
%TO.C, *%
X43180006Y27940008D03*
%TD*%
%TO.C, *%
X45720006Y27940008D03*
%TD*%
%TO.C, *%
X48260006Y27940008D03*
%TD*%
%TO.C, *%
X50800006Y27940008D03*
%TD*%
%TO.C, *%
X53340006Y27940008D03*
%TD*%
%TO.C, *%
X33020006Y25400008D03*
%TD*%
%TO.C, *%
X35560006Y25400008D03*
%TD*%
%TO.C, *%
X38100006Y25400008D03*
%TD*%
%TO.C, *%
X40640006Y25400008D03*
%TD*%
%TO.C, *%
X43180006Y25400008D03*
%TD*%
%TO.C, *%
X45720006Y25400008D03*
%TD*%
%TO.C, *%
X48260006Y25400008D03*
%TD*%
%TO.C, *%
X50800006Y25400008D03*
%TD*%
%TO.C, *%
X53340006Y25400008D03*
%TD*%
%TO.C, *%
X33020006Y22860008D03*
%TD*%
%TO.C, *%
X35560006Y22860008D03*
%TD*%
%TO.C, *%
X38100006Y22860008D03*
%TD*%
%TO.C, *%
X40640006Y22860008D03*
%TD*%
%TO.C, *%
X43180006Y22860008D03*
%TD*%
%TO.C, *%
X45720006Y22860008D03*
%TD*%
%TO.C, *%
X48260006Y22860008D03*
%TD*%
%TO.C, *%
X50800006Y22860008D03*
%TD*%
%TO.C, *%
X53340006Y22860008D03*
%TD*%
%TO.C, *%
X33020006Y20320008D03*
%TD*%
%TO.C, *%
X35560006Y20320008D03*
%TD*%
%TO.C, *%
X38100006Y20320008D03*
%TD*%
%TO.C, *%
X40640006Y20320008D03*
%TD*%
%TO.C, *%
X43180006Y20320008D03*
%TD*%
%TO.C, *%
X45720006Y20320008D03*
%TD*%
%TO.C, *%
X48260006Y20320008D03*
%TD*%
%TO.C, *%
X50800006Y20320008D03*
%TD*%
%TO.C, *%
X53340006Y20320008D03*
%TD*%
%TO.C, *%
X33020006Y17780008D03*
%TD*%
%TO.C, *%
X35560006Y17780008D03*
%TD*%
%TO.C, *%
X38100006Y17780008D03*
%TD*%
%TO.C, *%
X40640006Y17780008D03*
%TD*%
%TO.C, *%
X43180006Y17780008D03*
%TD*%
%TO.C, *%
X45720006Y17780008D03*
%TD*%
%TO.C, *%
X48260006Y17780008D03*
%TD*%
%TO.C, *%
X50800006Y17780008D03*
%TD*%
%TO.C, *%
X53340006Y17780008D03*
%TD*%
%TO.C, *%
X33020006Y15240008D03*
%TD*%
%TO.C, *%
X35560006Y15240008D03*
%TD*%
%TO.C, *%
X38100006Y15240008D03*
%TD*%
%TO.C, *%
X40640006Y15240008D03*
%TD*%
%TO.C, *%
X43180006Y15240008D03*
%TD*%
%TO.C, *%
X45720006Y15240008D03*
%TD*%
%TO.C, *%
X48260006Y15240008D03*
%TD*%
%TO.C, *%
X50800006Y15240008D03*
%TD*%
%TO.C, *%
X53340006Y15240008D03*
%TD*%
%TO.C, *%
X33020006Y12700008D03*
%TD*%
%TO.C, *%
X35560006Y12700008D03*
%TD*%
%TO.C, *%
X38100006Y12700008D03*
%TD*%
%TO.C, *%
X40640006Y12700008D03*
%TD*%
%TO.C, *%
X43180006Y12700008D03*
%TD*%
%TO.C, *%
X45720006Y12700008D03*
%TD*%
%TO.C, *%
X48260006Y12700008D03*
%TD*%
%TO.C, *%
X50800006Y12700008D03*
%TD*%
%TO.C, *%
X53340006Y12700008D03*
%TD*%
%TO.C, *%
X33020006Y10160008D03*
%TD*%
%TO.C, *%
X35560006Y10160008D03*
%TD*%
%TO.C, *%
X38100006Y10160008D03*
%TD*%
%TO.C, *%
X40640006Y10160008D03*
%TD*%
%TO.C, *%
X43180006Y10160008D03*
%TD*%
%TO.C, *%
X45720006Y10160008D03*
%TD*%
%TO.C, *%
X48260006Y10160008D03*
%TD*%
%TO.C, *%
X50800006Y10160008D03*
%TD*%
%TO.C, *%
X53340006Y10160008D03*
%TD*%
%TO.C, *%
X33020006Y7620008D03*
%TD*%
%TO.C, *%
X35560006Y7620008D03*
%TD*%
%TO.C, *%
X38100006Y7620008D03*
%TD*%
%TO.C, *%
X40640006Y7620008D03*
%TD*%
%TO.C, *%
X43180006Y7620008D03*
%TD*%
%TO.C, *%
X45720006Y7620008D03*
%TD*%
%TO.C, *%
X48260006Y7620008D03*
%TD*%
%TO.C, *%
X50800006Y7620008D03*
%TD*%
%TO.C, *%
X53340006Y7620008D03*
%TD*%
%TO.C, *%
X33020006Y5080008D03*
%TD*%
%TO.C, *%
X35560006Y5080008D03*
%TD*%
%TO.C, *%
X38100006Y5080008D03*
%TD*%
%TO.C, *%
X40640006Y5080008D03*
%TD*%
%TO.C, *%
X43180006Y5080008D03*
%TD*%
%TO.C, *%
X45720006Y5080008D03*
%TD*%
%TO.C, *%
X48260006Y5080008D03*
%TD*%
%TO.C, *%
X50800006Y5080008D03*
%TD*%
%TO.C, *%
X53340006Y5080008D03*
%TD*%
%TO.C, *%
X33020006Y2540008D03*
%TD*%
%TO.C, *%
X35560006Y2540008D03*
%TD*%
%TO.C, *%
X38100006Y2540008D03*
%TD*%
%TO.C, *%
X40640006Y2540008D03*
%TD*%
%TO.C, *%
X43180006Y2540008D03*
%TD*%
%TO.C, *%
X45720006Y2540008D03*
%TD*%
%TO.C, *%
X48260006Y2540008D03*
%TD*%
%TO.C, *%
X50800006Y2540008D03*
%TD*%
D14*
%TO.C,USB1*%
X5480006Y85265008D03*
X14120006Y85265008D03*
D15*
X5480006Y81115008D03*
X14120006Y81115008D03*
D16*
X6910006Y81615008D03*
X12690006Y81615008D03*
%TD*%
D17*
%TO.C,REF\u002A\u002A*%
X54200006Y2600008D03*
%TD*%
%TO.C,REF\u002A\u002A*%
X22600006Y2600008D03*
%TD*%
%TO.C,REF\u002A\u002A*%
X54800006Y64800008D03*
%TD*%
%TO.C,REF\u002A\u002A*%
X54700006Y56400008D03*
%TD*%
%TO.C,REF\u002A\u002A*%
X10000006Y42900008D03*
%TD*%
%TO.C,REF\u002A\u002A*%
X2300006Y42600008D03*
%TD*%
%TO.C,REF\u002A\u002A*%
X4600006Y56500008D03*
%TD*%
D18*
%TO.C,J1*%
X53680006Y42000008D03*
X51140006Y42000008D03*
X48600006Y42000008D03*
X46060006Y42000008D03*
X43520006Y42000008D03*
X40980006Y42000008D03*
X38440006Y42000008D03*
X35900006Y42000008D03*
X33360006Y42000008D03*
X30820006Y42000008D03*
X28280006Y42000008D03*
X25740006Y42000008D03*
X23200006Y42000008D03*
X20660006Y42000008D03*
X18120006Y42000008D03*
D19*
X15580006Y42000008D03*
%TD*%
D20*
%TO.C,REF\u002A\u002A*%
X25000006Y83600008D03*
%TD*%
D19*
%TO.C,J3*%
X28429006Y82203008D03*
D18*
X28429006Y84743008D03*
%TD*%
D20*
%TO.C,REF\u002A\u002A*%
X31985006Y83586008D03*
%TD*%
D19*
%TO.C,J5*%
X46225006Y84325008D03*
D18*
X46225006Y81785008D03*
X46225006Y79245008D03*
%TD*%
D17*
%TO.C,J6*%
X4600006Y36330008D03*
D21*
X4600006Y38870008D03*
D22*
X2060006Y36330008D03*
X2060006Y38870008D03*
%TD*%
D19*
%TO.C,JP1*%
X11575006Y26875008D03*
D18*
X11575006Y29415008D03*
X11575006Y31955008D03*
%TD*%
D23*
%TO.C,C17*%
X15450006Y22100008D03*
X3950006Y22100008D03*
%TD*%
D24*
%TO.C,J4*%
X3100006Y72560008D03*
X1830006Y72560008D03*
X3100006Y73830008D03*
X1830006Y73830008D03*
X3100006Y75100008D03*
X1830006Y75100008D03*
X3100006Y76370008D03*
X1830006Y76370008D03*
X3100006Y77640008D03*
D25*
X1830006Y77640008D03*
%TD*%
%LPD*%
M02*
