%TF.GenerationSoftware,KiCad,Pcbnew,8.0.8*%
%TF.CreationDate,2025-01-27T11:12:39+01:00*%
%TF.ProjectId,ares-parachute-board,61726573-2d70-4617-9261-63687574652d,rev?*%
%TF.SameCoordinates,Original*%
%TF.FileFunction,Paste,Top*%
%TF.FilePolarity,Positive*%
%FSLAX46Y46*%
G04 Gerber Fmt 4.6, Leading zero omitted, Abs format (unit mm)*
G04 Created by KiCad (PCBNEW 8.0.8) date 2025-01-27 11:12:39*
%MOMM*%
%LPD*%
G01*
G04 APERTURE LIST*
G04 Aperture macros list*
%AMRoundRect*
0 Rectangle with rounded corners*
0 $1 Rounding radius*
0 $2 $3 $4 $5 $6 $7 $8 $9 X,Y pos of 4 corners*
0 Add a 4 corners polygon primitive as box body*
4,1,4,$2,$3,$4,$5,$6,$7,$8,$9,$2,$3,0*
0 Add four circle primitives for the rounded corners*
1,1,$1+$1,$2,$3*
1,1,$1+$1,$4,$5*
1,1,$1+$1,$6,$7*
1,1,$1+$1,$8,$9*
0 Add four rect primitives between the rounded corners*
20,1,$1+$1,$2,$3,$4,$5,0*
20,1,$1+$1,$4,$5,$6,$7,0*
20,1,$1+$1,$6,$7,$8,$9,0*
20,1,$1+$1,$8,$9,$2,$3,0*%
G04 Aperture macros list end*
%ADD10RoundRect,0.225000X0.250000X-0.225000X0.250000X0.225000X-0.250000X0.225000X-0.250000X-0.225000X0*%
%ADD11RoundRect,0.200000X0.275000X-0.200000X0.275000X0.200000X-0.275000X0.200000X-0.275000X-0.200000X0*%
%ADD12R,0.280000X0.500000*%
%ADD13R,0.500000X0.280000*%
%ADD14RoundRect,0.225000X0.225000X0.250000X-0.225000X0.250000X-0.225000X-0.250000X0.225000X-0.250000X0*%
%ADD15R,0.750000X1.000000*%
%ADD16RoundRect,0.175000X0.325000X-0.175000X0.325000X0.175000X-0.325000X0.175000X-0.325000X-0.175000X0*%
%ADD17RoundRect,0.150000X0.150000X-0.200000X0.150000X0.200000X-0.150000X0.200000X-0.150000X-0.200000X0*%
%ADD18R,0.500000X1.500000*%
%ADD19RoundRect,0.200000X-0.275000X0.200000X-0.275000X-0.200000X0.275000X-0.200000X0.275000X0.200000X0*%
%ADD20RoundRect,0.200000X0.200000X0.275000X-0.200000X0.275000X-0.200000X-0.275000X0.200000X-0.275000X0*%
%ADD21O,0.630000X2.250000*%
%ADD22RoundRect,0.225000X-0.250000X0.225000X-0.250000X-0.225000X0.250000X-0.225000X0.250000X0.225000X0*%
%ADD23RoundRect,0.225000X-0.225000X-0.250000X0.225000X-0.250000X0.225000X0.250000X-0.225000X0.250000X0*%
%ADD24R,0.600000X1.070000*%
%ADD25R,1.100000X2.200000*%
%ADD26R,1.400000X1.000000*%
%ADD27RoundRect,0.075000X0.075000X-0.662500X0.075000X0.662500X-0.075000X0.662500X-0.075000X-0.662500X0*%
%ADD28RoundRect,0.075000X0.662500X-0.075000X0.662500X0.075000X-0.662500X0.075000X-0.662500X-0.075000X0*%
%ADD29R,0.600000X1.150000*%
%ADD30R,0.300000X1.150000*%
%ADD31R,1.000000X1.400000*%
%ADD32R,1.040000X0.530000*%
%ADD33RoundRect,0.200000X-0.200000X-0.275000X0.200000X-0.275000X0.200000X0.275000X-0.200000X0.275000X0*%
G04 APERTURE END LIST*
D10*
%TO.C,C1*%
X12200006Y75825008D03*
X12200006Y77375008D03*
%TD*%
D11*
%TO.C,R5*%
X16000006Y81175008D03*
X16000006Y82825008D03*
%TD*%
D12*
%TO.C,U7*%
X48200006Y53600008D03*
X48700006Y53600008D03*
X49200006Y53600008D03*
X49700006Y53600008D03*
D13*
X49830006Y54230008D03*
X49830006Y54730008D03*
D12*
X49700006Y55360008D03*
X49200006Y55360008D03*
X48700006Y55360008D03*
X48200006Y55360008D03*
D13*
X48070006Y54730008D03*
X48070006Y54230008D03*
%TD*%
D14*
%TO.C,C15*%
X7875006Y62800008D03*
X6325006Y62800008D03*
%TD*%
D10*
%TO.C,C12*%
X17000006Y71625008D03*
X17000006Y73175008D03*
%TD*%
D15*
%TO.C,SW1*%
X4450006Y55400008D03*
X4450006Y61400008D03*
X8150006Y55400008D03*
X8150006Y61400008D03*
%TD*%
D10*
%TO.C,C6*%
X7400006Y75825008D03*
X7400006Y77375008D03*
%TD*%
%TO.C,C3*%
X20000006Y81825008D03*
X20000006Y83375008D03*
%TD*%
D12*
%TO.C,U5*%
X23475006Y54085008D03*
X23975006Y54085008D03*
X24475006Y54085008D03*
X24975006Y54085008D03*
D13*
X25105006Y54715008D03*
X25105006Y55215008D03*
D12*
X24975006Y55845008D03*
X24475006Y55845008D03*
X23975006Y55845008D03*
X23475006Y55845008D03*
D13*
X23345006Y55215008D03*
X23345006Y54715008D03*
%TD*%
D16*
%TO.C,U3*%
X2050006Y82200008D03*
D17*
X3750006Y82200008D03*
X3750006Y84200008D03*
X1850006Y84200008D03*
%TD*%
D18*
%TO.C,X1*%
X10770006Y60700008D03*
X11970006Y60700008D03*
X13170006Y60700008D03*
%TD*%
D19*
%TO.C,R7*%
X21800006Y55825008D03*
X21800006Y54175008D03*
%TD*%
D20*
%TO.C,R12*%
X43000006Y73500008D03*
X41350006Y73500008D03*
%TD*%
D10*
%TO.C,C7*%
X36800006Y69625008D03*
X36800006Y71175008D03*
%TD*%
D21*
%TO.C,U4*%
X35110006Y73930008D03*
X33830006Y73930008D03*
X32570006Y73930008D03*
X31300006Y73930008D03*
X31300006Y66870008D03*
X32570006Y66870008D03*
X33830006Y66870008D03*
X35110006Y66870008D03*
%TD*%
D22*
%TO.C,C5*%
X16800006Y79175008D03*
X16800006Y77625008D03*
%TD*%
D10*
%TO.C,C2*%
X26800006Y76625008D03*
X26800006Y78175008D03*
%TD*%
D23*
%TO.C,C9*%
X23425006Y57400008D03*
X24975006Y57400008D03*
%TD*%
D19*
%TO.C,R4*%
X18200006Y83425008D03*
X18200006Y81775008D03*
%TD*%
D23*
%TO.C,C16*%
X48125006Y56695008D03*
X49675006Y56695008D03*
%TD*%
D14*
%TO.C,C11*%
X8375006Y72200008D03*
X6825006Y72200008D03*
%TD*%
D22*
%TO.C,C14*%
X4800006Y64375008D03*
X4800006Y62825008D03*
%TD*%
D24*
%TO.C,U1*%
X24950006Y78840008D03*
X23050006Y78840008D03*
X24000006Y76360008D03*
%TD*%
D25*
%TO.C,U8*%
X38630006Y51600008D03*
X41170006Y51600008D03*
X41170006Y60400008D03*
X38630006Y60400008D03*
%TD*%
D26*
%TO.C,LED1*%
X19100006Y75150008D03*
X19100006Y73050008D03*
%TD*%
D20*
%TO.C,R14*%
X43012506Y68700008D03*
X41362506Y68700008D03*
%TD*%
D27*
%TO.C,U6*%
X9650006Y63437508D03*
X10150006Y63437508D03*
X10650006Y63437508D03*
X11150006Y63437508D03*
X11650006Y63437508D03*
X12150006Y63437508D03*
X12650006Y63437508D03*
X13150006Y63437508D03*
X13650006Y63437508D03*
X14150006Y63437508D03*
X14650006Y63437508D03*
X15150006Y63437508D03*
D28*
X16562506Y64850008D03*
X16562506Y65350008D03*
X16562506Y65850008D03*
X16562506Y66350008D03*
X16562506Y66850008D03*
X16562506Y67350008D03*
X16562506Y67850008D03*
X16562506Y68350008D03*
X16562506Y68850008D03*
X16562506Y69350008D03*
X16562506Y69850008D03*
X16562506Y70350008D03*
D27*
X15150006Y71762508D03*
X14650006Y71762508D03*
X14150006Y71762508D03*
X13650006Y71762508D03*
X13150006Y71762508D03*
X12650006Y71762508D03*
X12150006Y71762508D03*
X11650006Y71762508D03*
X11150006Y71762508D03*
X10650006Y71762508D03*
X10150006Y71762508D03*
X9650006Y71762508D03*
D28*
X8237506Y70350008D03*
X8237506Y69850008D03*
X8237506Y69350008D03*
X8237506Y68850008D03*
X8237506Y68350008D03*
X8237506Y67850008D03*
X8237506Y67350008D03*
X8237506Y66850008D03*
X8237506Y66350008D03*
X8237506Y65850008D03*
X8237506Y65350008D03*
X8237506Y64850008D03*
%TD*%
D29*
%TO.C,USB1*%
X13000006Y80545008D03*
X12200006Y80545008D03*
D30*
X11050006Y80545008D03*
X10050006Y80545008D03*
X9550006Y80545008D03*
X11550006Y80545008D03*
D29*
X6600006Y80545008D03*
X7400006Y80545008D03*
D30*
X8050006Y80545008D03*
X9050006Y80545008D03*
X10550006Y80545008D03*
X8550006Y80545008D03*
%TD*%
D20*
%TO.C,R8*%
X25025006Y52800008D03*
X23375006Y52800008D03*
%TD*%
D19*
%TO.C,R6*%
X16000006Y86025008D03*
X16000006Y84375008D03*
%TD*%
D23*
%TO.C,C13*%
X15025006Y61400008D03*
X16575006Y61400008D03*
%TD*%
D19*
%TO.C,R10*%
X46500006Y55320008D03*
X46500006Y53670008D03*
%TD*%
D31*
%TO.C,LED2*%
X44925006Y73500008D03*
X47025006Y73500008D03*
%TD*%
D32*
%TO.C,U2*%
X19250006Y80150008D03*
X19250006Y79200008D03*
X19250006Y78250008D03*
X21550006Y78250008D03*
X21550006Y79200008D03*
X21550006Y80150008D03*
%TD*%
D20*
%TO.C,R13*%
X43025006Y71100008D03*
X41375006Y71100008D03*
%TD*%
D31*
%TO.C,LED3*%
X44950006Y71100008D03*
X47050006Y71100008D03*
%TD*%
D20*
%TO.C,R11*%
X49725006Y52295008D03*
X48075006Y52295008D03*
%TD*%
D31*
%TO.C,LED4*%
X44937506Y68700008D03*
X47037506Y68700008D03*
%TD*%
D19*
%TO.C,R1*%
X10600006Y77425008D03*
X10600006Y75775008D03*
%TD*%
D33*
%TO.C,R15*%
X9875006Y24100008D03*
X11525006Y24100008D03*
%TD*%
D22*
%TO.C,C4*%
X15200006Y79175008D03*
X15200006Y77625008D03*
%TD*%
D19*
%TO.C,R2*%
X9000006Y77425008D03*
X9000006Y75775008D03*
%TD*%
%TO.C,R3*%
X21400006Y76325008D03*
X21400006Y74675008D03*
%TD*%
M02*
