%TF.GenerationSoftware,KiCad,Pcbnew,8.0.6*%
%TF.CreationDate,2024-11-15T11:24:47+01:00*%
%TF.ProjectId,ares-parachute-board,61726573-2d70-4617-9261-63687574652d,rev?*%
%TF.SameCoordinates,Original*%
%TF.FileFunction,Profile,NP*%
%FSLAX46Y46*%
G04 Gerber Fmt 4.6, Leading zero omitted, Abs format (unit mm)*
G04 Created by KiCad (PCBNEW 8.0.6) date 2024-11-15 11:24:47*
%MOMM*%
%LPD*%
G01*
G04 APERTURE LIST*
%TA.AperFunction,Profile*%
%ADD10C,0.050000*%
%TD*%
G04 APERTURE END LIST*
D10*
X53100000Y46600008D02*
G75*
G02*
X51100000Y46600008I-1000000J0D01*
G01*
X53100000Y51500008D02*
X53100000Y46600008D01*
X51100000Y46600008D02*
X51100000Y51500008D01*
X15000000Y52000008D02*
X1000000Y52000008D01*
X16000006Y51000008D02*
X16000006Y47000008D01*
X57000006Y2000008D02*
G75*
G02*
X55000006Y-6I-2000006J-8D01*
G01*
X6Y86000008D02*
G75*
G02*
X2000006Y87999994I1999994J-8D01*
G01*
X16000000Y47000008D02*
G75*
G02*
X15000000Y46000008I-1000000J0D01*
G01*
X15000000Y46000008D02*
X1000000Y46000008D01*
X55000006Y88000008D02*
G75*
G02*
X57000008Y86000008I-6J-2000008D01*
G01*
X55000006Y8D02*
X2000006Y8D01*
X55000006Y88000008D02*
X2000006Y88000008D01*
X6Y86000008D02*
X0Y53000008D01*
X15000000Y52000008D02*
G75*
G02*
X16000000Y51000008I0J-1000000D01*
G01*
X0Y45000008D02*
G75*
G02*
X1000000Y46000008I1000000J0D01*
G01*
X2000006Y8D02*
G75*
G02*
X8Y2000008I-6J1999992D01*
G01*
X51100000Y51500008D02*
G75*
G02*
X53100000Y51500008I1000000J0D01*
G01*
X6Y45000008D02*
X6Y2000008D01*
X57000006Y2000008D02*
X57000006Y86000008D01*
X1000000Y52000008D02*
G75*
G02*
X0Y53000008I0J1000000D01*
G01*
M02*
