%TF.GenerationSoftware,KiCad,Pcbnew,8.0.6*%
%TF.CreationDate,2024-11-15T11:24:47+01:00*%
%TF.ProjectId,ares-parachute-board,61726573-2d70-4617-9261-63687574652d,rev?*%
%TF.SameCoordinates,Original*%
%TF.FileFunction,Soldermask,Top*%
%TF.FilePolarity,Negative*%
%FSLAX46Y46*%
G04 Gerber Fmt 4.6, Leading zero omitted, Abs format (unit mm)*
G04 Created by KiCad (PCBNEW 8.0.6) date 2024-11-15 11:24:47*
%MOMM*%
%LPD*%
G01*
G04 APERTURE LIST*
G04 Aperture macros list*
%AMRoundRect*
0 Rectangle with rounded corners*
0 $1 Rounding radius*
0 $2 $3 $4 $5 $6 $7 $8 $9 X,Y pos of 4 corners*
0 Add a 4 corners polygon primitive as box body*
4,1,4,$2,$3,$4,$5,$6,$7,$8,$9,$2,$3,0*
0 Add four circle primitives for the rounded corners*
1,1,$1+$1,$2,$3*
1,1,$1+$1,$4,$5*
1,1,$1+$1,$6,$7*
1,1,$1+$1,$8,$9*
0 Add four rect primitives between the rounded corners*
20,1,$1+$1,$2,$3,$4,$5,0*
20,1,$1+$1,$4,$5,$6,$7,0*
20,1,$1+$1,$6,$7,$8,$9,0*
20,1,$1+$1,$8,$9,$2,$3,0*%
G04 Aperture macros list end*
%ADD10C,1.900000*%
%ADD11C,1.700000*%
%ADD12R,0.300000X1.150000*%
%ADD13R,0.600000X1.150000*%
%ADD14O,1.000000X1.800000*%
%ADD15O,1.000000X2.100000*%
%ADD16C,0.650000*%
%ADD17C,2.200000*%
%ADD18O,1.700000X1.700000*%
%ADD19R,1.700000X1.700000*%
%ADD20C,3.500000*%
%ADD21RoundRect,0.225000X0.250000X-0.225000X0.250000X0.225000X-0.250000X0.225000X-0.250000X-0.225000X0*%
%ADD22RoundRect,0.200000X0.275000X-0.200000X0.275000X0.200000X-0.275000X0.200000X-0.275000X-0.200000X0*%
%ADD23R,0.280000X0.500000*%
%ADD24R,0.500000X0.280000*%
%ADD25RoundRect,0.225000X0.225000X0.250000X-0.225000X0.250000X-0.225000X-0.250000X0.225000X-0.250000X0*%
%ADD26RoundRect,0.175000X0.325000X-0.175000X0.325000X0.175000X-0.325000X0.175000X-0.325000X-0.175000X0*%
%ADD27RoundRect,0.150000X0.150000X-0.200000X0.150000X0.200000X-0.150000X0.200000X-0.150000X-0.200000X0*%
%ADD28R,1.500000X0.500000*%
%ADD29RoundRect,0.200000X-0.275000X0.200000X-0.275000X-0.200000X0.275000X-0.200000X0.275000X0.200000X0*%
%ADD30RoundRect,0.200000X0.200000X0.275000X-0.200000X0.275000X-0.200000X-0.275000X0.200000X-0.275000X0*%
%ADD31R,1.000000X1.800000*%
%ADD32R,2.200000X2.200000*%
%ADD33C,1.100000*%
%ADD34O,0.630000X2.250000*%
%ADD35RoundRect,0.225000X-0.250000X0.225000X-0.250000X-0.225000X0.250000X-0.225000X0.250000X0.225000X0*%
%ADD36RoundRect,0.225000X-0.225000X-0.250000X0.225000X-0.250000X0.225000X0.250000X-0.225000X0.250000X0*%
%ADD37R,0.600000X1.070000*%
%ADD38R,1.400000X1.000000*%
%ADD39RoundRect,0.075000X0.662500X-0.075000X0.662500X0.075000X-0.662500X0.075000X-0.662500X-0.075000X0*%
%ADD40RoundRect,0.075000X0.075000X-0.662500X0.075000X0.662500X-0.075000X0.662500X-0.075000X-0.662500X0*%
%ADD41R,1.000000X1.400000*%
%ADD42R,1.040000X0.530000*%
%ADD43C,1.524000*%
%ADD44RoundRect,0.200000X-0.200000X-0.275000X0.200000X-0.275000X0.200000X0.275000X-0.200000X0.275000X0*%
%ADD45O,1.000000X1.000000*%
%ADD46R,1.000000X1.000000*%
G04 APERTURE END LIST*
D10*
%TO.C,T7*%
X40200006Y65600008D03*
%TD*%
%TO.C,T6*%
X37700006Y62900008D03*
%TD*%
%TO.C,T5*%
X27500006Y72200008D03*
%TD*%
%TO.C,T4*%
X46900006Y52200008D03*
%TD*%
%TO.C,T3*%
X46900006Y55990008D03*
%TD*%
%TO.C,T2*%
X29600006Y50200008D03*
%TD*%
%TO.C,T1*%
X25600006Y49900008D03*
%TD*%
D11*
%TO.C, *%
X25400006Y2540008D03*
%TD*%
%TO.C, *%
X25400006Y5080008D03*
%TD*%
%TO.C, *%
X25400006Y7620008D03*
%TD*%
%TO.C, *%
X25400006Y10160008D03*
%TD*%
%TO.C, *%
X25400006Y12700008D03*
%TD*%
%TO.C, *%
X25400006Y15240008D03*
%TD*%
%TO.C, *%
X25400006Y17780008D03*
%TD*%
%TO.C, *%
X25400006Y20320008D03*
%TD*%
%TO.C, *%
X25400006Y33020008D03*
%TD*%
%TO.C, *%
X25400006Y35560008D03*
%TD*%
%TO.C, *%
X25400006Y27940008D03*
%TD*%
%TO.C, *%
X25400006Y22860008D03*
%TD*%
%TO.C, *%
X25400006Y25400008D03*
%TD*%
%TO.C, *%
X25400006Y30480008D03*
%TD*%
%TO.C, *%
X27940006Y2540008D03*
%TD*%
%TO.C, *%
X27940006Y5080008D03*
%TD*%
%TO.C, *%
X27940006Y7620008D03*
%TD*%
%TO.C, *%
X27940006Y10160008D03*
%TD*%
%TO.C, *%
X27940006Y12700008D03*
%TD*%
%TO.C, *%
X27940006Y15240008D03*
%TD*%
%TO.C, *%
X27940006Y17780008D03*
%TD*%
%TO.C, *%
X27940006Y20320008D03*
%TD*%
%TO.C, *%
X27940006Y33020008D03*
%TD*%
%TO.C, *%
X27940006Y35560008D03*
%TD*%
%TO.C, *%
X27940006Y27940008D03*
%TD*%
%TO.C, *%
X27940006Y22860008D03*
%TD*%
%TO.C, *%
X27940006Y25400008D03*
%TD*%
%TO.C, *%
X27940006Y30480008D03*
%TD*%
%TO.C, *%
X30480006Y2540008D03*
%TD*%
%TO.C, *%
X30480006Y5080008D03*
%TD*%
%TO.C, *%
X30480006Y7620008D03*
%TD*%
%TO.C, *%
X30480006Y10160008D03*
%TD*%
%TO.C, *%
X30480006Y12700008D03*
%TD*%
%TO.C, *%
X30480006Y15240008D03*
%TD*%
%TO.C, *%
X30480006Y17780008D03*
%TD*%
%TO.C, *%
X30480006Y20320008D03*
%TD*%
%TO.C, *%
X30480006Y33020008D03*
%TD*%
%TO.C, *%
X30480006Y35560008D03*
%TD*%
%TO.C, *%
X30480006Y27940008D03*
%TD*%
%TO.C, *%
X30480006Y22860008D03*
%TD*%
%TO.C, *%
X30480006Y25400008D03*
%TD*%
%TO.C, *%
X30480006Y30480008D03*
%TD*%
%TO.C, *%
X33020006Y35560008D03*
%TD*%
%TO.C, *%
X35560006Y35560008D03*
%TD*%
%TO.C, *%
X38100006Y35560008D03*
%TD*%
%TO.C, *%
X40640006Y35560008D03*
%TD*%
%TO.C, *%
X43180006Y35560008D03*
%TD*%
%TO.C, *%
X45720006Y35560008D03*
%TD*%
%TO.C, *%
X48260006Y35560008D03*
%TD*%
%TO.C, *%
X50800006Y35560008D03*
%TD*%
%TO.C, *%
X53340006Y35560008D03*
%TD*%
%TO.C, *%
X33020006Y33020008D03*
%TD*%
%TO.C, *%
X35560006Y33020008D03*
%TD*%
%TO.C, *%
X38100006Y33020008D03*
%TD*%
%TO.C, *%
X40640006Y33020008D03*
%TD*%
%TO.C, *%
X43180006Y33020008D03*
%TD*%
%TO.C, *%
X45720006Y33020008D03*
%TD*%
%TO.C, *%
X48260006Y33020008D03*
%TD*%
%TO.C, *%
X50800006Y33020008D03*
%TD*%
%TO.C, *%
X53340006Y33020008D03*
%TD*%
%TO.C, *%
X33020006Y30480008D03*
%TD*%
%TO.C, *%
X35560006Y30480008D03*
%TD*%
%TO.C, *%
X38100006Y30480008D03*
%TD*%
%TO.C, *%
X40640006Y30480008D03*
%TD*%
%TO.C, *%
X43180006Y30480008D03*
%TD*%
%TO.C, *%
X45720006Y30480008D03*
%TD*%
%TO.C, *%
X48260006Y30480008D03*
%TD*%
%TO.C, *%
X50800006Y30480008D03*
%TD*%
%TO.C, *%
X53340006Y30480008D03*
%TD*%
%TO.C, *%
X33020006Y27940008D03*
%TD*%
%TO.C, *%
X35560006Y27940008D03*
%TD*%
%TO.C, *%
X38100006Y27940008D03*
%TD*%
%TO.C, *%
X40640006Y27940008D03*
%TD*%
%TO.C, *%
X43180006Y27940008D03*
%TD*%
%TO.C, *%
X45720006Y27940008D03*
%TD*%
%TO.C, *%
X48260006Y27940008D03*
%TD*%
%TO.C, *%
X50800006Y27940008D03*
%TD*%
%TO.C, *%
X53340006Y27940008D03*
%TD*%
%TO.C, *%
X33020006Y25400008D03*
%TD*%
%TO.C, *%
X35560006Y25400008D03*
%TD*%
%TO.C, *%
X38100006Y25400008D03*
%TD*%
%TO.C, *%
X40640006Y25400008D03*
%TD*%
%TO.C, *%
X43180006Y25400008D03*
%TD*%
%TO.C, *%
X45720006Y25400008D03*
%TD*%
%TO.C, *%
X48260006Y25400008D03*
%TD*%
%TO.C, *%
X50800006Y25400008D03*
%TD*%
%TO.C, *%
X53340006Y25400008D03*
%TD*%
%TO.C, *%
X33020006Y22860008D03*
%TD*%
%TO.C, *%
X35560006Y22860008D03*
%TD*%
%TO.C, *%
X38100006Y22860008D03*
%TD*%
%TO.C, *%
X40640006Y22860008D03*
%TD*%
%TO.C, *%
X43180006Y22860008D03*
%TD*%
%TO.C, *%
X45720006Y22860008D03*
%TD*%
%TO.C, *%
X48260006Y22860008D03*
%TD*%
%TO.C, *%
X50800006Y22860008D03*
%TD*%
%TO.C, *%
X53340006Y22860008D03*
%TD*%
%TO.C, *%
X33020006Y20320008D03*
%TD*%
%TO.C, *%
X35560006Y20320008D03*
%TD*%
%TO.C, *%
X38100006Y20320008D03*
%TD*%
%TO.C, *%
X40640006Y20320008D03*
%TD*%
%TO.C, *%
X43180006Y20320008D03*
%TD*%
%TO.C, *%
X45720006Y20320008D03*
%TD*%
%TO.C, *%
X48260006Y20320008D03*
%TD*%
%TO.C, *%
X50800006Y20320008D03*
%TD*%
%TO.C, *%
X53340006Y20320008D03*
%TD*%
%TO.C, *%
X33020006Y17780008D03*
%TD*%
%TO.C, *%
X35560006Y17780008D03*
%TD*%
%TO.C, *%
X38100006Y17780008D03*
%TD*%
%TO.C, *%
X40640006Y17780008D03*
%TD*%
%TO.C, *%
X43180006Y17780008D03*
%TD*%
%TO.C, *%
X45720006Y17780008D03*
%TD*%
%TO.C, *%
X48260006Y17780008D03*
%TD*%
%TO.C, *%
X50800006Y17780008D03*
%TD*%
%TO.C, *%
X53340006Y17780008D03*
%TD*%
%TO.C, *%
X33020006Y15240008D03*
%TD*%
%TO.C, *%
X35560006Y15240008D03*
%TD*%
%TO.C, *%
X38100006Y15240008D03*
%TD*%
%TO.C, *%
X40640006Y15240008D03*
%TD*%
%TO.C, *%
X43180006Y15240008D03*
%TD*%
%TO.C, *%
X45720006Y15240008D03*
%TD*%
%TO.C, *%
X48260006Y15240008D03*
%TD*%
%TO.C, *%
X50800006Y15240008D03*
%TD*%
%TO.C, *%
X53340006Y15240008D03*
%TD*%
%TO.C, *%
X33020006Y12700008D03*
%TD*%
%TO.C, *%
X35560006Y12700008D03*
%TD*%
%TO.C, *%
X38100006Y12700008D03*
%TD*%
%TO.C, *%
X40640006Y12700008D03*
%TD*%
%TO.C, *%
X43180006Y12700008D03*
%TD*%
%TO.C, *%
X45720006Y12700008D03*
%TD*%
%TO.C, *%
X48260006Y12700008D03*
%TD*%
%TO.C, *%
X50800006Y12700008D03*
%TD*%
%TO.C, *%
X53340006Y12700008D03*
%TD*%
%TO.C, *%
X33020006Y10160008D03*
%TD*%
%TO.C, *%
X35560006Y10160008D03*
%TD*%
%TO.C, *%
X38100006Y10160008D03*
%TD*%
%TO.C, *%
X40640006Y10160008D03*
%TD*%
%TO.C, *%
X43180006Y10160008D03*
%TD*%
%TO.C, *%
X45720006Y10160008D03*
%TD*%
%TO.C, *%
X48260006Y10160008D03*
%TD*%
%TO.C, *%
X50800006Y10160008D03*
%TD*%
%TO.C, *%
X53340006Y10160008D03*
%TD*%
%TO.C, *%
X33020006Y7620008D03*
%TD*%
%TO.C, *%
X35560006Y7620008D03*
%TD*%
%TO.C, *%
X38100006Y7620008D03*
%TD*%
%TO.C, *%
X40640006Y7620008D03*
%TD*%
%TO.C, *%
X43180006Y7620008D03*
%TD*%
%TO.C, *%
X45720006Y7620008D03*
%TD*%
%TO.C, *%
X48260006Y7620008D03*
%TD*%
%TO.C, *%
X50800006Y7620008D03*
%TD*%
%TO.C, *%
X53340006Y7620008D03*
%TD*%
%TO.C, *%
X33020006Y5080008D03*
%TD*%
%TO.C, *%
X35560006Y5080008D03*
%TD*%
%TO.C, *%
X38100006Y5080008D03*
%TD*%
%TO.C, *%
X40640006Y5080008D03*
%TD*%
%TO.C, *%
X43180006Y5080008D03*
%TD*%
%TO.C, *%
X45720006Y5080008D03*
%TD*%
%TO.C, *%
X48260006Y5080008D03*
%TD*%
%TO.C, *%
X50800006Y5080008D03*
%TD*%
%TO.C, *%
X53340006Y5080008D03*
%TD*%
%TO.C, *%
X33020006Y2540008D03*
%TD*%
%TO.C, *%
X35560006Y2540008D03*
%TD*%
%TO.C, *%
X38100006Y2540008D03*
%TD*%
%TO.C, *%
X40640006Y2540008D03*
%TD*%
%TO.C, *%
X43180006Y2540008D03*
%TD*%
%TO.C, *%
X45720006Y2540008D03*
%TD*%
%TO.C, *%
X48260006Y2540008D03*
%TD*%
%TO.C, *%
X50800006Y2540008D03*
%TD*%
D12*
%TO.C,USB1*%
X8550006Y80545008D03*
X10550006Y80545008D03*
X9050006Y80545008D03*
X8050006Y80545008D03*
D13*
X7400006Y80545008D03*
X6600006Y80545008D03*
D12*
X11550006Y80545008D03*
X9550006Y80545008D03*
X10050006Y80545008D03*
X11050006Y80545008D03*
D13*
X12200006Y80545008D03*
X13000006Y80545008D03*
D14*
X5480006Y85265008D03*
X14120006Y85265008D03*
D15*
X5480006Y81115008D03*
X14120006Y81115008D03*
D16*
X6910006Y81615008D03*
X12690006Y81615008D03*
%TD*%
D17*
%TO.C,REF\u002A\u002A*%
X54200006Y2600008D03*
%TD*%
%TO.C,REF\u002A\u002A*%
X22600006Y2600008D03*
%TD*%
%TO.C,REF\u002A\u002A*%
X54800006Y64800008D03*
%TD*%
%TO.C,REF\u002A\u002A*%
X54700006Y56400008D03*
%TD*%
%TO.C,REF\u002A\u002A*%
X10000006Y42900008D03*
%TD*%
%TO.C,REF\u002A\u002A*%
X2300006Y42600008D03*
%TD*%
%TO.C,REF\u002A\u002A*%
X4600006Y56500008D03*
%TD*%
D18*
%TO.C,J1*%
X53680006Y42000008D03*
X51140006Y42000008D03*
X48600006Y42000008D03*
X46060006Y42000008D03*
X43520006Y42000008D03*
X40980006Y42000008D03*
X38440006Y42000008D03*
X35900006Y42000008D03*
X33360006Y42000008D03*
X30820006Y42000008D03*
X28280006Y42000008D03*
X25740006Y42000008D03*
X23200006Y42000008D03*
X20660006Y42000008D03*
X18120006Y42000008D03*
D19*
X15580006Y42000008D03*
%TD*%
D20*
%TO.C,REF\u002A\u002A*%
X25000006Y83600008D03*
%TD*%
D19*
%TO.C,J3*%
X28429006Y82203008D03*
D18*
X28429006Y84743008D03*
%TD*%
D20*
%TO.C,REF\u002A\u002A*%
X31985006Y83586008D03*
%TD*%
D21*
%TO.C,C1*%
X12200006Y75825008D03*
X12200006Y77375008D03*
%TD*%
D19*
%TO.C,J5*%
X46225006Y84325008D03*
D18*
X46225006Y81785008D03*
X46225006Y79245008D03*
%TD*%
D22*
%TO.C,R5*%
X16000006Y81175008D03*
X16000006Y82825008D03*
%TD*%
D23*
%TO.C,U7*%
X38900006Y53905008D03*
X39400006Y53905008D03*
X39900006Y53905008D03*
X40400006Y53905008D03*
D24*
X40530006Y54535008D03*
X40530006Y55035008D03*
D23*
X40400006Y55665008D03*
X39900006Y55665008D03*
X39400006Y55665008D03*
X38900006Y55665008D03*
D24*
X38770006Y55035008D03*
X38770006Y54535008D03*
%TD*%
D25*
%TO.C,C15*%
X6325006Y62800008D03*
X7875006Y62800008D03*
%TD*%
D21*
%TO.C,C12*%
X17000006Y71625008D03*
X17000006Y73175008D03*
%TD*%
%TO.C,C6*%
X7400006Y75825008D03*
X7400006Y77375008D03*
%TD*%
%TO.C,C3*%
X20000006Y81825008D03*
X20000006Y83375008D03*
%TD*%
D23*
%TO.C,U5*%
X23475006Y54085008D03*
X23975006Y54085008D03*
X24475006Y54085008D03*
X24975006Y54085008D03*
D24*
X25105006Y54715008D03*
X25105006Y55215008D03*
D23*
X24975006Y55845008D03*
X24475006Y55845008D03*
X23975006Y55845008D03*
X23475006Y55845008D03*
D24*
X23345006Y55215008D03*
X23345006Y54715008D03*
%TD*%
D26*
%TO.C,U3*%
X2050006Y82200008D03*
D27*
X3750006Y82200008D03*
X3750006Y84200008D03*
X1850006Y84200008D03*
%TD*%
D28*
%TO.C,X1*%
X11600006Y61200008D03*
X11600006Y60000008D03*
X11600006Y58800008D03*
%TD*%
D29*
%TO.C,R7*%
X21800006Y55825008D03*
X21800006Y54175008D03*
%TD*%
D21*
%TO.C,C10*%
X9600006Y57025008D03*
X9600006Y58575008D03*
%TD*%
D30*
%TO.C,R12*%
X41350006Y73500008D03*
X43000006Y73500008D03*
%TD*%
D31*
%TO.C,X2*%
X7150006Y60600008D03*
X9650006Y60600008D03*
%TD*%
D21*
%TO.C,C7*%
X36800006Y71175008D03*
X36800006Y69625008D03*
%TD*%
D17*
%TO.C,J6*%
X4600006Y36330008D03*
D32*
X4600006Y38870008D03*
D33*
X2060006Y36330008D03*
X2060006Y38870008D03*
%TD*%
D34*
%TO.C,U4*%
X35110006Y66870008D03*
X33830006Y66870008D03*
X32570006Y66870008D03*
X31300006Y66870008D03*
X31300006Y73930008D03*
X32570006Y73930008D03*
X33830006Y73930008D03*
X35110006Y73930008D03*
%TD*%
D35*
%TO.C,C5*%
X16800006Y79175008D03*
X16800006Y77625008D03*
%TD*%
D21*
%TO.C,C2*%
X26800006Y76625008D03*
X26800006Y78175008D03*
%TD*%
D22*
%TO.C,R9*%
X13400006Y59175008D03*
X13400006Y60825008D03*
%TD*%
D36*
%TO.C,C9*%
X23425006Y57400008D03*
X24975006Y57400008D03*
%TD*%
D29*
%TO.C,R4*%
X18200006Y83425008D03*
X18200006Y81775008D03*
%TD*%
D36*
%TO.C,C16*%
X38825006Y57000008D03*
X40375006Y57000008D03*
%TD*%
D19*
%TO.C,JP1*%
X11575006Y26875008D03*
D18*
X11575006Y29415008D03*
X11575006Y31955008D03*
%TD*%
D25*
%TO.C,C11*%
X8375006Y72200008D03*
X6825006Y72200008D03*
%TD*%
D35*
%TO.C,C14*%
X4800006Y62825008D03*
X4800006Y64375008D03*
%TD*%
D37*
%TO.C,U1*%
X24950006Y78840008D03*
X23050006Y78840008D03*
X24000006Y76360008D03*
%TD*%
D38*
%TO.C,LED1*%
X19100006Y75150008D03*
X19100006Y73050008D03*
%TD*%
D21*
%TO.C,C8*%
X7200006Y57025008D03*
X7200006Y58575008D03*
%TD*%
D30*
%TO.C,R14*%
X41362506Y68700008D03*
X43012506Y68700008D03*
%TD*%
D39*
%TO.C,U6*%
X8237506Y64850008D03*
X8237506Y65350008D03*
X8237506Y65850008D03*
X8237506Y66350008D03*
X8237506Y66850008D03*
X8237506Y67350008D03*
X8237506Y67850008D03*
X8237506Y68350008D03*
X8237506Y68850008D03*
X8237506Y69350008D03*
X8237506Y69850008D03*
X8237506Y70350008D03*
D40*
X9650006Y71762508D03*
X10150006Y71762508D03*
X10650006Y71762508D03*
X11150006Y71762508D03*
X11650006Y71762508D03*
X12150006Y71762508D03*
X12650006Y71762508D03*
X13150006Y71762508D03*
X13650006Y71762508D03*
X14150006Y71762508D03*
X14650006Y71762508D03*
X15150006Y71762508D03*
D39*
X16562506Y70350008D03*
X16562506Y69850008D03*
X16562506Y69350008D03*
X16562506Y68850008D03*
X16562506Y68350008D03*
X16562506Y67850008D03*
X16562506Y67350008D03*
X16562506Y66850008D03*
X16562506Y66350008D03*
X16562506Y65850008D03*
X16562506Y65350008D03*
X16562506Y64850008D03*
D40*
X15150006Y63437508D03*
X14650006Y63437508D03*
X14150006Y63437508D03*
X13650006Y63437508D03*
X13150006Y63437508D03*
X12650006Y63437508D03*
X12150006Y63437508D03*
X11650006Y63437508D03*
X11150006Y63437508D03*
X10650006Y63437508D03*
X10150006Y63437508D03*
X9650006Y63437508D03*
%TD*%
D30*
%TO.C,R8*%
X25025006Y52800008D03*
X23375006Y52800008D03*
%TD*%
D29*
%TO.C,R6*%
X16000006Y86025008D03*
X16000006Y84375008D03*
%TD*%
D36*
%TO.C,C13*%
X15025006Y61400008D03*
X16575006Y61400008D03*
%TD*%
D29*
%TO.C,R10*%
X37200006Y55625008D03*
X37200006Y53975008D03*
%TD*%
D41*
%TO.C,LED2*%
X47025006Y73500008D03*
X44925006Y73500008D03*
%TD*%
D42*
%TO.C,U2*%
X19250006Y80150008D03*
X19250006Y79200008D03*
X19250006Y78250008D03*
X21550006Y78250008D03*
X21550006Y79200008D03*
X21550006Y80150008D03*
%TD*%
D30*
%TO.C,R13*%
X41375006Y71100008D03*
X43025006Y71100008D03*
%TD*%
D41*
%TO.C,LED3*%
X47050006Y71100008D03*
X44950006Y71100008D03*
%TD*%
D30*
%TO.C,R11*%
X40425006Y52600008D03*
X38775006Y52600008D03*
%TD*%
D41*
%TO.C,LED4*%
X47037506Y68700008D03*
X44937506Y68700008D03*
%TD*%
D29*
%TO.C,R1*%
X10600006Y77425008D03*
X10600006Y75775008D03*
%TD*%
D43*
%TO.C,C17*%
X15450006Y22100008D03*
X3950006Y22100008D03*
%TD*%
D44*
%TO.C,R15*%
X9875006Y24100008D03*
X11525006Y24100008D03*
%TD*%
D35*
%TO.C,C4*%
X15200006Y79175008D03*
X15200006Y77625008D03*
%TD*%
D29*
%TO.C,R2*%
X9000006Y77425008D03*
X9000006Y75775008D03*
%TD*%
%TO.C,R3*%
X21400006Y76325008D03*
X21400006Y74675008D03*
%TD*%
D45*
%TO.C,J4*%
X3100006Y72560008D03*
X1830006Y72560008D03*
X3100006Y73830008D03*
X1830006Y73830008D03*
X3100006Y75100008D03*
X1830006Y75100008D03*
X3100006Y76370008D03*
X1830006Y76370008D03*
X3100006Y77640008D03*
D46*
X1830006Y77640008D03*
%TD*%
M02*
