%TF.GenerationSoftware,KiCad,Pcbnew,8.0.8*%
%TF.CreationDate,2025-01-27T11:12:39+01:00*%
%TF.ProjectId,ares-parachute-board,61726573-2d70-4617-9261-63687574652d,rev?*%
%TF.SameCoordinates,Original*%
%TF.FileFunction,Soldermask,Bot*%
%TF.FilePolarity,Negative*%
%FSLAX46Y46*%
G04 Gerber Fmt 4.6, Leading zero omitted, Abs format (unit mm)*
G04 Created by KiCad (PCBNEW 8.0.8) date 2025-01-27 11:12:39*
%MOMM*%
%LPD*%
G01*
G04 APERTURE LIST*
%ADD10R,1.700000X1.700000*%
%ADD11O,1.700000X1.700000*%
%ADD12C,1.700000*%
%ADD13C,3.500000*%
%ADD14C,2.200000*%
%ADD15C,1.100000*%
%ADD16R,2.200000X2.200000*%
%ADD17C,0.650000*%
%ADD18O,1.000000X2.100000*%
%ADD19O,1.000000X1.800000*%
%ADD20R,1.000000X1.000000*%
%ADD21O,1.000000X1.000000*%
%ADD22C,1.524000*%
G04 APERTURE END LIST*
D10*
%TO.C,J1*%
X15580006Y42000008D03*
D11*
X18120006Y42000008D03*
X20660006Y42000008D03*
X23200006Y42000008D03*
X25740006Y42000008D03*
X28280006Y42000008D03*
X30820006Y42000008D03*
X33360006Y42000008D03*
X35900006Y42000008D03*
X38440006Y42000008D03*
X40980006Y42000008D03*
X43520006Y42000008D03*
X46060006Y42000008D03*
X48600006Y42000008D03*
X51140006Y42000008D03*
X53680006Y42000008D03*
%TD*%
D12*
%TO.C, *%
X33020006Y35560008D03*
%TD*%
%TO.C, *%
X35560006Y35560008D03*
%TD*%
%TO.C, *%
X38100006Y35560008D03*
%TD*%
%TO.C, *%
X40640006Y35560008D03*
%TD*%
%TO.C, *%
X43180006Y35560008D03*
%TD*%
%TO.C, *%
X45720006Y35560008D03*
%TD*%
%TO.C, *%
X48260006Y35560008D03*
%TD*%
%TO.C, *%
X50800006Y35560008D03*
%TD*%
%TO.C, *%
X53340006Y35560008D03*
%TD*%
%TO.C, *%
X33020006Y33020008D03*
%TD*%
%TO.C, *%
X35560006Y33020008D03*
%TD*%
%TO.C, *%
X38100006Y33020008D03*
%TD*%
%TO.C, *%
X40640006Y33020008D03*
%TD*%
%TO.C, *%
X43180006Y33020008D03*
%TD*%
%TO.C, *%
X45720006Y33020008D03*
%TD*%
%TO.C, *%
X48260006Y33020008D03*
%TD*%
%TO.C, *%
X50800006Y33020008D03*
%TD*%
%TO.C, *%
X53340006Y33020008D03*
%TD*%
%TO.C, *%
X33020006Y30480008D03*
%TD*%
%TO.C, *%
X35560006Y30480008D03*
%TD*%
%TO.C, *%
X38100006Y30480008D03*
%TD*%
%TO.C, *%
X40640006Y30480008D03*
%TD*%
%TO.C, *%
X43180006Y30480008D03*
%TD*%
%TO.C, *%
X45720006Y30480008D03*
%TD*%
%TO.C, *%
X48260006Y30480008D03*
%TD*%
%TO.C, *%
X50800006Y30480008D03*
%TD*%
%TO.C, *%
X53340006Y30480008D03*
%TD*%
%TO.C, *%
X33020006Y27940008D03*
%TD*%
%TO.C, *%
X35560006Y27940008D03*
%TD*%
%TO.C, *%
X38100006Y27940008D03*
%TD*%
%TO.C, *%
X40640006Y27940008D03*
%TD*%
%TO.C, *%
X43180006Y27940008D03*
%TD*%
%TO.C, *%
X45720006Y27940008D03*
%TD*%
%TO.C, *%
X48260006Y27940008D03*
%TD*%
%TO.C, *%
X50800006Y27940008D03*
%TD*%
%TO.C, *%
X53340006Y27940008D03*
%TD*%
%TO.C, *%
X33020006Y25400008D03*
%TD*%
%TO.C, *%
X35560006Y25400008D03*
%TD*%
%TO.C, *%
X38100006Y25400008D03*
%TD*%
%TO.C, *%
X40640006Y25400008D03*
%TD*%
%TO.C, *%
X43180006Y25400008D03*
%TD*%
%TO.C, *%
X45720006Y25400008D03*
%TD*%
%TO.C, *%
X48260006Y25400008D03*
%TD*%
%TO.C, *%
X50800006Y25400008D03*
%TD*%
%TO.C, *%
X53340006Y25400008D03*
%TD*%
%TO.C, *%
X33020006Y22860008D03*
%TD*%
%TO.C, *%
X35560006Y22860008D03*
%TD*%
%TO.C, *%
X38100006Y22860008D03*
%TD*%
%TO.C, *%
X40640006Y22860008D03*
%TD*%
%TO.C, *%
X43180006Y22860008D03*
%TD*%
%TO.C, *%
X45720006Y22860008D03*
%TD*%
%TO.C, *%
X48260006Y22860008D03*
%TD*%
%TO.C, *%
X50800006Y22860008D03*
%TD*%
%TO.C, *%
X53340006Y22860008D03*
%TD*%
%TO.C, *%
X33020006Y20320008D03*
%TD*%
%TO.C, *%
X35560006Y20320008D03*
%TD*%
%TO.C, *%
X38100006Y20320008D03*
%TD*%
%TO.C, *%
X40640006Y20320008D03*
%TD*%
%TO.C, *%
X43180006Y20320008D03*
%TD*%
%TO.C, *%
X45720006Y20320008D03*
%TD*%
%TO.C, *%
X48260006Y20320008D03*
%TD*%
%TO.C, *%
X50800006Y20320008D03*
%TD*%
%TO.C, *%
X53340006Y20320008D03*
%TD*%
%TO.C, *%
X33020006Y17780008D03*
%TD*%
%TO.C, *%
X35560006Y17780008D03*
%TD*%
%TO.C, *%
X38100006Y17780008D03*
%TD*%
%TO.C, *%
X40640006Y17780008D03*
%TD*%
%TO.C, *%
X43180006Y17780008D03*
%TD*%
%TO.C, *%
X45720006Y17780008D03*
%TD*%
%TO.C, *%
X48260006Y17780008D03*
%TD*%
%TO.C, *%
X50800006Y17780008D03*
%TD*%
%TO.C, *%
X53340006Y17780008D03*
%TD*%
%TO.C, *%
X33020006Y15240008D03*
%TD*%
%TO.C, *%
X35560006Y15240008D03*
%TD*%
%TO.C, *%
X38100006Y15240008D03*
%TD*%
%TO.C, *%
X40640006Y15240008D03*
%TD*%
%TO.C, *%
X43180006Y15240008D03*
%TD*%
%TO.C, *%
X45720006Y15240008D03*
%TD*%
%TO.C, *%
X48260006Y15240008D03*
%TD*%
%TO.C, *%
X50800006Y15240008D03*
%TD*%
%TO.C, *%
X53340006Y15240008D03*
%TD*%
%TO.C, *%
X33020006Y12700008D03*
%TD*%
%TO.C, *%
X35560006Y12700008D03*
%TD*%
%TO.C, *%
X38100006Y12700008D03*
%TD*%
%TO.C, *%
X40640006Y12700008D03*
%TD*%
%TO.C, *%
X43180006Y12700008D03*
%TD*%
%TO.C, *%
X45720006Y12700008D03*
%TD*%
%TO.C, *%
X48260006Y12700008D03*
%TD*%
%TO.C, *%
X50800006Y12700008D03*
%TD*%
%TO.C, *%
X53340006Y12700008D03*
%TD*%
%TO.C, *%
X33020006Y10160008D03*
%TD*%
%TO.C, *%
X35560006Y10160008D03*
%TD*%
%TO.C, *%
X38100006Y10160008D03*
%TD*%
%TO.C, *%
X40640006Y10160008D03*
%TD*%
%TO.C, *%
X43180006Y10160008D03*
%TD*%
%TO.C, *%
X45720006Y10160008D03*
%TD*%
%TO.C, *%
X48260006Y10160008D03*
%TD*%
%TO.C, *%
X50800006Y10160008D03*
%TD*%
%TO.C, *%
X53340006Y10160008D03*
%TD*%
%TO.C, *%
X33020006Y7620008D03*
%TD*%
%TO.C, *%
X35560006Y7620008D03*
%TD*%
%TO.C, *%
X38100006Y7620008D03*
%TD*%
%TO.C, *%
X40640006Y7620008D03*
%TD*%
%TO.C, *%
X43180006Y7620008D03*
%TD*%
%TO.C, *%
X45720006Y7620008D03*
%TD*%
%TO.C, *%
X48260006Y7620008D03*
%TD*%
%TO.C, *%
X50800006Y7620008D03*
%TD*%
%TO.C, *%
X53340006Y7620008D03*
%TD*%
%TO.C, *%
X33020006Y5080008D03*
%TD*%
%TO.C, *%
X35560006Y5080008D03*
%TD*%
%TO.C, *%
X38100006Y5080008D03*
%TD*%
%TO.C, *%
X40640006Y5080008D03*
%TD*%
%TO.C, *%
X43180006Y5080008D03*
%TD*%
%TO.C, *%
X45720006Y5080008D03*
%TD*%
%TO.C, *%
X48260006Y5080008D03*
%TD*%
%TO.C, *%
X50800006Y5080008D03*
%TD*%
%TO.C, *%
X53340006Y5080008D03*
%TD*%
%TO.C, *%
X33020006Y2540008D03*
%TD*%
%TO.C, *%
X35560006Y2540008D03*
%TD*%
%TO.C, *%
X38100006Y2540008D03*
%TD*%
%TO.C, *%
X40640006Y2540008D03*
%TD*%
%TO.C, *%
X43180006Y2540008D03*
%TD*%
%TO.C, *%
X45720006Y2540008D03*
%TD*%
%TO.C, *%
X48260006Y2540008D03*
%TD*%
%TO.C, *%
X50800006Y2540008D03*
%TD*%
D13*
%TO.C,REF\u002A\u002A*%
X25000006Y83600008D03*
%TD*%
D10*
%TO.C,J3*%
X28429006Y82203008D03*
D11*
X28429006Y84743008D03*
%TD*%
D13*
%TO.C,REF\u002A\u002A*%
X31985006Y83586008D03*
%TD*%
D12*
%TO.C, *%
X25400006Y15240008D03*
%TD*%
D10*
%TO.C,J5*%
X46225006Y84325008D03*
D11*
X46225006Y81785008D03*
X46225006Y79245008D03*
%TD*%
D12*
%TO.C, *%
X27940006Y10160008D03*
%TD*%
D14*
%TO.C,REF\u002A\u002A*%
X2300006Y42600008D03*
%TD*%
%TO.C,REF\u002A\u002A*%
X54800006Y64800008D03*
%TD*%
D12*
%TO.C, *%
X27940006Y7620008D03*
%TD*%
%TO.C, *%
X25400006Y27940008D03*
%TD*%
D14*
%TO.C,REF\u002A\u002A*%
X54200006Y2600008D03*
%TD*%
D12*
%TO.C, *%
X30480006Y12700008D03*
%TD*%
%TO.C, *%
X27940006Y22860008D03*
%TD*%
%TO.C, *%
X27940006Y20320008D03*
%TD*%
%TO.C, *%
X25400006Y30480008D03*
%TD*%
%TO.C, *%
X27940006Y30480008D03*
%TD*%
%TO.C, *%
X30480006Y20320008D03*
%TD*%
%TO.C, *%
X27940006Y2540008D03*
%TD*%
%TO.C, *%
X25400006Y17780008D03*
%TD*%
%TO.C, *%
X27940006Y27940008D03*
%TD*%
%TO.C, *%
X30480006Y22860008D03*
%TD*%
%TO.C, *%
X30480006Y25400008D03*
%TD*%
%TO.C, *%
X25400006Y10160008D03*
%TD*%
%TO.C, *%
X25400006Y12700008D03*
%TD*%
D15*
%TO.C,J6*%
X2060006Y38870008D03*
X2060006Y36330008D03*
D16*
X4600006Y38870008D03*
D14*
X4600006Y36330008D03*
%TD*%
D12*
%TO.C, *%
X30480006Y17780008D03*
%TD*%
D14*
%TO.C,REF\u002A\u002A*%
X10000006Y42900008D03*
%TD*%
D12*
%TO.C, *%
X30480006Y7620008D03*
%TD*%
%TO.C, *%
X30480006Y33020008D03*
%TD*%
%TO.C, *%
X25400006Y33020008D03*
%TD*%
D14*
%TO.C,REF\u002A\u002A*%
X54700006Y56400008D03*
%TD*%
D10*
%TO.C,JP1*%
X11575006Y26875008D03*
D11*
X11575006Y29415008D03*
X11575006Y31955008D03*
%TD*%
D14*
%TO.C,REF\u002A\u002A*%
X10800006Y56700008D03*
%TD*%
D12*
%TO.C, *%
X30480006Y30480008D03*
%TD*%
%TO.C, *%
X30480006Y15240008D03*
%TD*%
%TO.C, *%
X25400006Y5080008D03*
%TD*%
%TO.C, *%
X30480006Y35560008D03*
%TD*%
%TO.C, *%
X25400006Y25400008D03*
%TD*%
%TO.C, *%
X27940006Y17780008D03*
%TD*%
%TO.C, *%
X25400006Y20320008D03*
%TD*%
%TO.C, *%
X27940006Y15240008D03*
%TD*%
%TO.C, *%
X30480006Y2540008D03*
%TD*%
D17*
%TO.C,USB1*%
X12690006Y81615008D03*
X6910006Y81615008D03*
D18*
X14120006Y81115008D03*
X5480006Y81115008D03*
D19*
X14120006Y85265008D03*
X5480006Y85265008D03*
%TD*%
D12*
%TO.C, *%
X25400006Y35560008D03*
%TD*%
%TO.C, *%
X25400006Y7620008D03*
%TD*%
%TO.C, *%
X30480006Y10160008D03*
%TD*%
D20*
%TO.C,J4*%
X1830006Y77640008D03*
D21*
X3100006Y77640008D03*
X1830006Y76370008D03*
X3100006Y76370008D03*
X1830006Y75100008D03*
X3100006Y75100008D03*
X1830006Y73830008D03*
X3100006Y73830008D03*
X1830006Y72560008D03*
X3100006Y72560008D03*
%TD*%
D12*
%TO.C, *%
X25400006Y22860008D03*
%TD*%
%TO.C, *%
X27940006Y33020008D03*
%TD*%
%TO.C, *%
X30480006Y27940008D03*
%TD*%
%TO.C, *%
X25400006Y2540008D03*
%TD*%
D14*
%TO.C,REF\u002A\u002A*%
X22600006Y2600008D03*
%TD*%
D12*
%TO.C, *%
X27940006Y35560008D03*
%TD*%
D22*
%TO.C,C17*%
X15450006Y22100008D03*
X3950006Y22100008D03*
%TD*%
D12*
%TO.C, *%
X27940006Y5080008D03*
%TD*%
%TO.C, *%
X27940006Y25400008D03*
%TD*%
%TO.C, *%
X30480006Y5080008D03*
%TD*%
%TO.C, *%
X27940006Y12700008D03*
%TD*%
M02*
