M48
; DRILL file {KiCad 8.0.6} date 2024-11-15T11:24:47+0100
; FORMAT={-:-/ absolute / inch / decimal}
; #@! TF.CreationDate,2024-11-15T11:24:47+01:00
; #@! TF.GenerationSoftware,Kicad,Pcbnew,8.0.6
; #@! TF.FileFunction,Plated,1,2,PTH
FMAT,2
INCH
; #@! TA.AperFunction,Plated,PTH,ViaDrill
T1C0.0118
; #@! TA.AperFunction,Plated,PTH,ComponentDrill
T2C0.0236
; #@! TA.AperFunction,Plated,PTH,ComponentDrill
T3C0.0256
; #@! TA.AperFunction,Plated,PTH,ComponentDrill
T4C0.0300
; #@! TA.AperFunction,Plated,PTH,ComponentDrill
T5C0.0394
; #@! TA.AperFunction,Plated,PTH,ComponentDrill
T6C0.0433
; #@! TA.AperFunction,Plated,PTH,ComponentDrill
T7C0.0472
%
G90
G05
T1
X0.0787Y3.1969
X0.1575Y2.4764
X0.2126Y2.4213
X0.2307Y2.7268
X0.2441Y3.0472
X0.248Y2.6299
X0.2638Y2.5236
X0.2677Y2.8937
X0.2736Y3.252
X0.3189Y2.7992
X0.3259Y3.2562
X0.3327Y3.2134
X0.3593Y3.2897
X0.376Y3.2395
X0.3819Y1.5618
X0.3819Y1.4673
X0.3848Y2.5709
X0.4016Y3.3071
X0.4023Y2.8795
X0.4094Y3.2729
X0.4173Y2.7795
X0.4418Y2.689
X0.4418Y2.5945
X0.4572Y2.5463
X0.4646Y3.2362
X0.4921Y2.7677
X0.5039Y2.3622
X0.5139Y2.4447
X0.5157Y2.7244
X0.5312Y2.6553
X0.5394Y2.7477
X0.5433Y3.0551
X0.5472Y2.1181
X0.5539Y2.6334
X0.5654Y2.7248
X0.5674Y2.0939
X0.5866Y2.748
X0.5981Y2.6308
X0.5984Y2.5669
X0.5994Y2.5994
X0.626Y2.8268
X0.6299Y3.4291
X0.6299Y3.1575
X0.6299Y2.1496
X0.6299Y2.0545
X0.6339Y2.9213
X0.6339Y2.1181
X0.647Y2.4843
X0.6693Y2.2441
X0.6732Y2.9961
X0.6732Y2.5079
X0.6806Y2.9364
X0.6969Y2.2756
X0.7008Y2.9606
X0.7008Y2.7717
X0.7008Y2.4173
X0.7152Y2.1943
X0.7165Y3.3268
X0.7203Y2.5353
X0.7283Y2.1299
X0.7283Y2.0433
X0.7323Y2.7883
X0.7388Y2.5608
X0.7546Y2.1093
X0.7559Y2.7644
X0.7632Y2.7146
X0.7638Y2.0512
X0.7692Y2.5689
X0.7796Y2.7414
X0.7874Y3.3268
X0.7953Y2.4646
X0.7992Y2.0512
X0.8031Y3.0472
X0.8346Y2.7086
X0.8425Y2.6781
X0.8457Y2.5448
X0.8465Y2.4213
X0.85Y2.6083
X0.8527Y2.7692
X0.8701Y2.7955
X0.8737Y2.5591
X0.874Y2.8268
X0.874Y2.4449
X0.876Y2.748
X0.876Y2.6772
X0.876Y2.6299
X0.876Y2.5905
X0.876Y2.5039
X0.878Y2.0945
X0.9661Y2.4007
X0.974Y2.9645
X0.974Y2.5254
X0.974Y2.437
X0.9754Y2.623
X0.9764Y2.9331
X0.9764Y2.6614
X0.9764Y2.5906
X0.9764Y2.311
X0.9882Y2.5551
X0.9978Y2.5017
X1.0276Y3.122
X1.0276Y2.4055
X1.0276Y2.2008
X1.045Y2.3793
X1.0654Y2.3553
X1.1052Y2.347
X1.1145Y2.3771
X1.122Y3.0157
X1.1474Y2.3746
X1.1535Y2.4055
X1.1969Y2.9134
X1.2089Y2.9997
X1.248Y2.7008
X1.3031Y2.5787
X1.4488Y2.8504
X1.4803Y2.5748
X1.4947Y2.0954
X1.6378Y2.2441
X1.6378Y2.189
X1.6417Y2.1142
X1.9094Y2.8465
X1.9094Y2.752
T3
X0.072Y3.0567
X0.072Y3.0067
X0.072Y2.9567
X0.072Y2.9067
X0.072Y2.8567
X0.122Y3.0567
X0.122Y3.0067
X0.122Y2.9567
X0.122Y2.9067
X0.122Y2.8567
T4
X0.1555Y0.8701
X0.6083Y0.8701
T5
X0.4557Y1.2581
X0.4557Y1.1581
X0.4557Y1.0581
X0.6134Y1.6535
X0.7134Y1.6535
X0.8134Y1.6535
X0.9134Y1.6535
X1.0Y1.4
X1.0Y1.3
X1.0Y1.2
X1.0Y1.1
X1.0Y1.0
X1.0Y0.9
X1.0Y0.8
X1.0Y0.7
X1.0Y0.6
X1.0Y0.5
X1.0Y0.4
X1.0Y0.3
X1.0Y0.2
X1.0Y0.1
X1.0134Y1.6535
X1.1Y1.4
X1.1Y1.3
X1.1Y1.2
X1.1Y1.1
X1.1Y1.0
X1.1Y0.9
X1.1Y0.8
X1.1Y0.7
X1.1Y0.6
X1.1Y0.5
X1.1Y0.4
X1.1Y0.3
X1.1Y0.2
X1.1Y0.1
X1.1134Y1.6535
X1.1193Y3.3363
X1.1193Y3.2363
X1.2Y1.4
X1.2Y1.3
X1.2Y1.2
X1.2Y1.1
X1.2Y1.0
X1.2Y0.9
X1.2Y0.8
X1.2Y0.7
X1.2Y0.6
X1.2Y0.5
X1.2Y0.4
X1.2Y0.3
X1.2Y0.2
X1.2Y0.1
X1.2134Y1.6535
X1.3Y1.4
X1.3Y1.3
X1.3Y1.2
X1.3Y1.1
X1.3Y1.0
X1.3Y0.9
X1.3Y0.8
X1.3Y0.7
X1.3Y0.6
X1.3Y0.5
X1.3Y0.4
X1.3Y0.3
X1.3Y0.2
X1.3Y0.1
X1.3134Y1.6535
X1.4Y1.4
X1.4Y1.3
X1.4Y1.2
X1.4Y1.1
X1.4Y1.0
X1.4Y0.9
X1.4Y0.8
X1.4Y0.7
X1.4Y0.6
X1.4Y0.5
X1.4Y0.4
X1.4Y0.3
X1.4Y0.2
X1.4Y0.1
X1.4134Y1.6535
X1.5Y1.4
X1.5Y1.3
X1.5Y1.2
X1.5Y1.1
X1.5Y1.0
X1.5Y0.9
X1.5Y0.8
X1.5Y0.7
X1.5Y0.6
X1.5Y0.5
X1.5Y0.4
X1.5Y0.3
X1.5Y0.2
X1.5Y0.1
X1.5134Y1.6535
X1.6Y1.4
X1.6Y1.3
X1.6Y1.2
X1.6Y1.1
X1.6Y1.0
X1.6Y0.9
X1.6Y0.8
X1.6Y0.7
X1.6Y0.6
X1.6Y0.5
X1.6Y0.4
X1.6Y0.3
X1.6Y0.2
X1.6Y0.1
X1.6134Y1.6535
X1.7Y1.4
X1.7Y1.3
X1.7Y1.2
X1.7Y1.1
X1.7Y1.0
X1.7Y0.9
X1.7Y0.8
X1.7Y0.7
X1.7Y0.6
X1.7Y0.5
X1.7Y0.4
X1.7Y0.3
X1.7Y0.2
X1.7Y0.1
X1.7134Y1.6535
X1.8Y1.4
X1.8Y1.3
X1.8Y1.2
X1.8Y1.1
X1.8Y1.0
X1.8Y0.9
X1.8Y0.8
X1.8Y0.7
X1.8Y0.6
X1.8Y0.5
X1.8Y0.4
X1.8Y0.3
X1.8Y0.2
X1.8Y0.1
X1.8134Y1.6535
X1.8199Y3.3199
X1.8199Y3.2199
X1.8199Y3.1199
X1.9Y1.4
X1.9Y1.3
X1.9Y1.2
X1.9Y1.1
X1.9Y1.0
X1.9Y0.9
X1.9Y0.8
X1.9Y0.7
X1.9Y0.6
X1.9Y0.5
X1.9Y0.4
X1.9Y0.3
X1.9Y0.2
X1.9Y0.1
X1.9134Y1.6535
X2.0Y1.4
X2.0Y1.3
X2.0Y1.2
X2.0Y1.1
X2.0Y1.0
X2.0Y0.9
X2.0Y0.8
X2.0Y0.7
X2.0Y0.6
X2.0Y0.5
X2.0Y0.4
X2.0Y0.3
X2.0Y0.2
X2.0Y0.1
X2.0134Y1.6535
X2.1Y1.4
X2.1Y1.3
X2.1Y1.2
X2.1Y1.1
X2.1Y1.0
X2.1Y0.9
X2.1Y0.8
X2.1Y0.7
X2.1Y0.6
X2.1Y0.5
X2.1Y0.4
X2.1Y0.3
X2.1Y0.2
X2.1134Y1.6535
T6
X0.1811Y1.5303
X0.1811Y1.4303
T7
X1.0079Y1.9646
X1.0827Y2.8425
X1.1654Y1.9764
X1.4843Y2.4764
X1.5827Y2.5827
X1.8465Y2.2043
X1.8465Y2.0551
T2
G00X0.2157Y3.3411
M15
G01X0.2157Y3.3726
M16
G05
G00X0.2157Y3.1719
M15
G01X0.2157Y3.2152
M16
G05
G00X0.5559Y3.3411
M15
G01X0.5559Y3.3726
M16
G05
G00X0.5559Y3.1719
M15
G01X0.5559Y3.2152
M16
G05
M30
